<svg width="73" height="32" viewBox="0 0 73 32" fill="none" xmlns="http://www.w3.org/2000/svg">
    <g clip-path="url(#clip0_1_2312)">
        <path d="M28.9785 16.6982H31.3497C31.268 18.7786 31.255 20.5705 31.316 22.6576C31.3634 22.6142 31.4085 22.5684 31.451 22.5205C31.8912 21.954 32.4619 21.4977 33.1167 21.189C33.883 20.8322 34.7404 20.7063 35.5799 20.8274C35.9834 20.871 36.3763 20.9809 36.7424 21.1525C37.4441 21.4988 37.8679 22.0743 38.1174 22.784C38.2973 23.2926 38.397 23.8252 38.4128 24.3633C38.4296 24.9936 38.4264 25.6213 38.4338 26.255C38.4492 27.6959 38.466 29.1364 38.4844 30.5768C38.4844 30.7867 38.5163 30.996 38.5324 31.2059C38.5406 31.3124 38.5481 31.4197 38.5568 31.5436H36.0206C36.0369 31.3648 36.0612 31.198 36.0652 31.0298C36.0902 30.0571 36.1274 29.0837 36.1267 28.1103C36.1267 27.0509 36.0984 25.9915 36.0639 24.9321C36.0513 24.4643 35.965 24.0013 35.8077 23.5593C35.5534 22.8575 35.0642 22.4443 34.307 22.3212C33.8177 22.2411 33.337 22.245 32.872 22.4145C32.2224 22.6515 31.8397 23.143 31.5992 23.7574C31.4257 24.1857 31.3289 24.6404 31.3132 25.1009C31.2895 25.9954 31.276 26.8888 31.2842 27.7865C31.2915 28.6977 31.3287 29.608 31.3558 30.5192C31.366 30.8503 31.3842 31.1853 31.3977 31.5125C31.209 31.5654 29.3421 31.5786 28.9771 31.5356C28.9771 31.4694 28.9771 31.4033 28.9771 31.3369C29.0028 30.52 29.0508 29.7028 29.0521 28.8871C29.0557 26.0055 29.0497 23.1235 29.0338 20.2413C29.0285 19.0654 28.9973 18.1642 28.9785 16.9883C28.977 16.9015 28.9785 16.8088 28.9785 16.6982Z" fill="white"/>
        <path d="M72.6864 28.8023H72.9628C72.9738 28.8658 72.9809 28.93 72.9844 28.9943C72.9844 29.5008 72.9844 30.0074 72.9844 30.5173C72.9884 30.5786 72.9745 30.6397 72.9442 30.6937C72.9141 30.7475 72.869 30.7921 72.8141 30.8219C71.973 31.3618 71.019 31.7104 70.0224 31.8416C69.2006 31.9591 68.3629 31.909 67.5619 31.6945C66.5095 31.4126 65.6327 30.8582 64.9717 30.0008C64.368 29.2167 64.053 28.3223 63.9273 27.3521C63.8068 26.4619 63.8621 25.5571 64.0902 24.687C64.4485 23.3323 65.1778 22.222 66.4215 21.479C66.9867 21.1415 67.6183 20.9252 68.275 20.844C69.2249 20.7133 70.1929 20.8106 71.0959 21.1273C71.7799 21.3683 72.3471 21.7663 72.7101 22.4059C73.1778 23.2304 73.1304 24.5249 72.1984 25.2757C71.7828 25.6038 71.3151 25.8628 70.8139 26.0425C69.8332 26.4073 68.8456 26.757 67.9187 27.2456C67.4639 27.486 67.017 27.7403 66.5669 27.9898C66.5127 28.0197 66.4635 28.0561 66.383 28.113C66.4372 28.2798 66.4824 28.4514 66.5467 28.6155C66.7825 29.2201 67.111 29.765 67.6282 30.1862C68.3981 30.8139 69.2809 31.0007 70.2461 30.7881C71.3041 30.555 72.0644 29.934 72.5599 28.9956C72.5856 28.9473 72.6099 28.8983 72.6371 28.8506C72.6515 28.8327 72.6681 28.8165 72.6864 28.8023ZM66.227 27.0734C66.3222 27.0284 66.3925 26.9973 66.4615 26.9622C67.2165 26.5781 67.9757 26.2027 68.7232 25.8067C69.1373 25.5914 69.5393 25.3544 69.9271 25.0962C70.5571 24.6692 70.9594 24.0958 71.0201 23.3203C71.0701 22.6814 70.7497 22.0743 70.1562 21.8081C69.3897 21.4631 68.6374 21.5246 67.9255 21.9629C67.3112 22.3417 66.917 22.9045 66.6372 23.5461C66.1952 24.5572 66.0965 25.6193 66.1727 26.7046C66.1822 26.8185 66.2067 26.9324 66.227 27.0734Z" fill="white"/>
        <path d="M46.7954 11.0262C46.8294 11.1487 46.8529 11.262 46.8909 11.3705C47.1531 12.1141 47.5431 12.7763 48.2109 13.2424C49.1066 13.8668 50.0841 13.9436 51.0953 13.5808C51.9361 13.2795 52.5533 12.7127 52.9596 11.9254C52.9913 11.8632 53.0273 11.8029 53.0691 11.7268H53.3605C53.3722 11.7847 53.3804 11.8433 53.3848 11.9022C53.3848 12.4167 53.3848 12.9312 53.3848 13.4451C53.3886 13.5027 53.3758 13.5602 53.3479 13.611C53.3198 13.6618 53.2778 13.7039 53.2266 13.7324C52.515 14.1933 51.7197 14.5161 50.8838 14.6833C49.908 14.8992 48.8924 14.8714 47.9304 14.6025C46.2872 14.1343 45.1792 13.0915 44.6182 11.5083C44.2742 10.5356 44.2059 9.53308 44.3277 8.51138C44.4282 7.66517 44.6655 6.86464 45.1029 6.12765C45.7424 5.05365 46.6637 4.30809 47.8744 3.93131C48.6104 3.70221 49.3696 3.66051 50.1401 3.74791C50.7216 3.81412 51.2893 3.92866 51.8158 4.17697C52.4066 4.45309 52.8846 4.84971 53.1678 5.43969C53.6038 6.3422 53.4638 7.57246 52.4783 8.29155C51.9876 8.64977 51.4401 8.89411 50.8681 9.09209C49.5163 9.55492 48.2186 10.1573 46.9969 10.8892C46.9374 10.9322 46.8732 10.9746 46.7954 11.0262ZM46.6326 9.98732C46.6942 9.96283 46.7299 9.95222 46.7637 9.93501C47.6424 9.48606 48.5274 9.03912 49.4068 8.58622C49.9076 8.32796 50.3848 8.03464 50.7871 7.63669C51.1891 7.24862 51.4176 6.72024 51.4225 6.16739C51.436 5.5112 51.1576 4.99539 50.5321 4.71994C49.7731 4.38489 49.0241 4.44978 48.3252 4.89011C47.5877 5.35361 47.1761 6.05681 46.8922 6.84409C46.7104 7.36814 46.6018 7.91382 46.5691 8.46637C46.5332 8.96232 46.5237 9.46091 46.6326 9.98732Z" fill="white"/>
        <path d="M39.3857 14.4767H37.6168C37.159 13.31 36.7163 12.1459 36.2478 10.9918C35.7794 9.83768 35.2853 8.69018 34.8001 7.5387C34.3146 6.38724 33.7928 5.25959 33.3486 4.06243H35.9545C36.4236 5.4132 36.8765 6.76334 37.3613 8.10153C37.8458 9.43973 38.3818 10.76 38.951 12.0658L39.005 12.0731C39.0415 12.0022 39.0842 11.9334 39.114 11.8592C39.4593 11.0064 39.8183 10.1582 40.1427 9.29738C40.7775 7.61221 41.3932 5.92041 42.0172 4.22996C42.0382 4.17236 42.0672 4.11804 42.0922 4.06177H43.7144C43.7176 4.0822 43.7176 4.10292 43.7144 4.12335C43.7009 4.15977 43.6834 4.19486 43.6672 4.23062C42.1125 7.59233 40.7605 11.0309 39.3857 14.4767Z" fill="white"/>
        <path d="M16.696 4.06042H19.3323C20.1643 6.7749 21.1532 9.44082 22.2944 12.0453C22.2984 12.0552 22.322 12.0565 22.3694 12.0731C23.4969 9.44567 24.4344 6.7461 25.4301 4.06109H27.0841C25.5004 7.49764 24.1167 10.9898 22.7289 14.4787H20.9614C20.505 13.3159 20.0617 12.1525 19.5932 10.9984C19.1248 9.84427 18.6265 8.69612 18.146 7.54399C17.6654 6.39185 17.1347 5.26289 16.696 4.06042Z" fill="white"/>
        <path d="M57.1861 31.5483C57.0881 31.2748 57.0021 31.0086 56.8988 30.7485C56.2823 29.2057 55.6739 27.6588 55.0399 26.1233C54.4059 24.5878 53.7481 23.0774 53.1032 21.5545C53.0491 21.4281 53.0139 21.2949 52.9619 21.1399H55.5901C56.423 23.8669 57.4226 26.5423 58.5833 29.1519C59.2072 27.8476 59.7013 26.5034 60.2055 25.1665C60.7098 23.8297 61.1938 22.4887 61.6927 21.1399H63.3372C61.7582 24.5746 60.3712 28.0581 58.9868 31.5515L57.1861 31.5483Z" fill="white"/>
        <path d="M25.2405 31.5495H22.9051C22.9268 29.9815 22.9551 28.4203 22.9686 26.8589C22.9821 25.2975 22.9686 23.7309 22.9181 22.1424H21.3606V21.1373C21.5031 21.1214 21.6438 21.1101 21.7836 21.0889C22.7348 20.9407 23.3728 20.3884 23.8021 19.5739C24.0579 19.0795 24.2215 18.5442 24.2848 17.9934C24.2901 17.9477 24.299 17.9019 24.3105 17.8331C24.5646 17.8146 24.8195 17.8146 25.0736 17.8331V21.1167H27.2962C27.357 21.3095 27.3637 21.8715 27.3137 22.1338H25.0553C25.056 25.281 25.0183 28.4017 25.2405 31.5495Z" fill="white"/>
        <path d="M2.34963 14.4734H0.0419091C0.114913 11.0005 0.118293 7.54006 0 4.06312H2.27056V6.01779C2.38748 6.02308 2.38411 5.92642 2.41115 5.87676C2.65059 5.41846 2.95887 4.99794 3.32572 4.62927C3.79078 4.16974 4.32952 3.84594 4.99061 3.7347C5.31122 3.67726 5.64226 3.72741 5.93019 3.87706V5.88006C5.85761 5.85872 5.78724 5.83079 5.71997 5.79663C4.96966 5.28545 4.09225 5.31922 3.39061 5.89331C2.88972 6.30384 2.58825 6.84017 2.44428 7.45133C2.3571 7.7982 2.31016 8.1536 2.30435 8.51077C2.29421 10.1774 2.30434 11.8447 2.31448 13.5113C2.31313 13.8219 2.33543 14.1344 2.34963 14.4734Z" fill="white"/>
        <path d="M40.7253 21.1332H42.9966V23.092C43.1128 23.0972 43.1101 23.0012 43.1365 22.951C43.3723 22.4994 43.6751 22.0847 44.0348 21.72C44.5025 21.2532 45.0488 20.9187 45.716 20.8102C46.0354 20.7501 46.3662 20.7968 46.6555 20.9427V22.9596C46.5827 22.9386 46.5124 22.9108 46.4453 22.8761C45.695 22.3655 44.8163 22.3993 44.116 22.9728C43.6158 23.3832 43.3156 23.9196 43.1663 24.5301C43.0816 24.8622 43.0362 25.203 43.031 25.5451C43.0228 27.2669 43.031 28.9884 43.0431 30.71C43.0431 30.9814 43.0661 31.2529 43.079 31.523C42.9093 31.5754 41.0796 31.5892 40.7699 31.5409C40.8416 28.0779 40.8436 24.6148 40.7253 21.1332Z" fill="white"/>
        <path d="M48.595 21.1333H50.9346C50.9445 21.1415 50.954 21.1501 50.9629 21.1592C50.9684 21.1649 50.9722 21.1717 50.9744 21.1791C50.9812 21.2091 50.9852 21.2397 50.9859 21.2704C50.8569 24.6871 50.8717 28.1038 50.9636 31.5204C50.7959 31.5721 48.8912 31.5868 48.6017 31.5337C48.6227 29.8028 48.6612 28.0694 48.6599 26.3359C48.6587 24.6024 48.6187 22.882 48.595 21.1333Z" fill="white"/>
        <path d="M29.0229 4.06116H31.3888C31.2683 7.53478 31.2758 10.9938 31.3651 14.4695H29.0229C29.0119 14.4537 29.003 14.4368 28.9959 14.4191C28.9913 14.3973 28.9893 14.3751 28.9898 14.3529C29.1148 10.9521 29.0634 7.55068 29.0006 4.14856C29.005 4.11876 29.0125 4.08946 29.0229 4.06116Z" fill="white"/>
        <path d="M30.3008 0.000870386C30.493 0.00767723 30.6817 0.052214 30.8558 0.131835C31.0301 0.211456 31.1861 0.324537 31.3148 0.464374C31.4343 0.587418 31.5265 0.733529 31.5852 0.893383C31.6438 1.05324 31.6679 1.22332 31.6559 1.39279C31.6436 1.56226 31.5956 1.72738 31.5146 1.87763C31.4338 2.02787 31.3217 2.15995 31.1857 2.26542C30.9107 2.48173 30.5678 2.59804 30.2152 2.59454C29.8626 2.59103 29.5222 2.46795 29.2518 2.24622C28.5678 1.66683 28.684 0.63587 29.4836 0.193555C29.7332 0.0580838 30.0157 -0.00851046 30.3008 0.000870386Z" fill="white"/>
        <path d="M48.3804 18.5166C48.4236 17.8875 48.6996 17.4981 49.1983 17.2584C49.5106 17.1154 49.8641 17.0839 50.1973 17.1696C50.5308 17.2552 50.8231 17.4525 51.0235 17.7272C51.1859 17.9515 51.2655 18.223 51.2491 18.4976C51.2328 18.772 51.1215 19.0329 50.9336 19.2368C50.2766 19.9727 48.9956 19.8448 48.5399 18.99C48.4514 18.8244 48.4176 18.6285 48.3804 18.5166Z" fill="white"/>
        <path d="M16.9826 22.0359C17.5801 25.1215 16.9278 28.713 13.8157 30.1803C13.4913 30.3339 13.1555 30.4631 12.8112 30.567C11.6245 30.9149 10.3566 30.8917 9.184 30.5007L9.1644 30.4948C4.8903 29.0891 3.92504 24.5229 4.25558 20.5626C4.43201 17.5697 5.62778 14.5483 7.75502 12.3718C7.86456 12.5671 7.98742 12.7549 8.12274 12.934C8.19574 13.028 8.27011 13.1207 8.35121 13.2074L8.46276 13.3286C8.53035 13.3981 8.59795 13.461 8.67163 13.5273C9.21239 14.0186 9.87866 14.3775 10.6704 14.6039C11.6343 14.8731 12.6518 14.9002 13.6291 14.6827C14.4641 14.5156 15.2586 14.1936 15.9699 13.7338C16.0214 13.705 16.0636 13.6626 16.0918 13.6114C16.12 13.5603 16.133 13.5025 16.1295 13.4445C16.1234 12.9307 16.1295 12.4162 16.1254 11.9023C16.1216 11.8434 16.1137 11.7848 16.1018 11.7269H15.8111C15.7678 11.8037 15.7327 11.8639 15.7009 11.9255C15.6928 11.9387 15.6874 11.952 15.6793 11.9659C15.2737 12.728 14.6653 13.2809 13.8373 13.5776C13.1079 13.8378 12.3982 13.8722 11.7236 13.6352C11.4484 13.5401 11.1888 13.4062 10.953 13.2379C10.2851 12.7744 9.89376 12.1122 9.63216 11.366C9.59499 11.2561 9.56929 11.1429 9.53549 11.0217C9.61459 10.9714 9.67746 10.927 9.74436 10.8893C10.9665 10.1573 12.2646 9.55487 13.6169 9.09218C14.1875 8.89355 14.7356 8.64986 15.2271 8.29164C16.2119 7.57321 16.3519 6.34229 15.9152 5.43912C15.63 4.8498 15.1527 4.45318 14.5633 4.17574C14.0347 3.92942 13.4703 3.81422 12.8883 3.74866C12.1281 3.64971 11.3551 3.71203 10.6218 3.9314C10.5055 3.96783 10.394 4.00689 10.2838 4.05059C10.248 4.06251 10.2162 4.07576 10.181 4.08967C9.18467 4.49953 8.41003 5.18882 7.85169 6.12907C7.66083 6.44755 7.50386 6.78435 7.38323 7.13421C7.36363 7.18786 7.34606 7.24215 7.32983 7.29578C7.20597 7.69351 7.11976 8.10157 7.07231 8.5148C6.95469 9.50471 7.01553 10.4734 7.33188 11.417C6.72432 11.9349 6.1536 12.4928 5.62371 13.0869C3.16796 15.756 1.75047 19.4587 2.07695 23.0853C2.20877 24.9393 2.84756 27.229 4.07847 28.6812C5.19719 30.0055 6.73027 30.9476 8.39921 31.4702C10.2615 32.0515 12.2839 32.0415 14.0827 31.2926C15.0358 30.902 15.8961 30.3224 16.6094 29.5902C18.6048 27.5417 19.0766 24.5991 19.1396 21.8816L16.9826 22.0359ZM9.30972 8.46514C9.34308 7.913 9.45222 7.36779 9.63419 6.84419C9.91741 6.05624 10.3284 5.3537 11.0672 4.88954C11.2745 4.75636 11.5013 4.65499 11.7398 4.58892C12.2373 4.44855 12.7537 4.49092 13.2729 4.72135C13.8981 4.9968 14.1773 5.51261 14.1638 6.16947C14.1579 6.7221 13.9295 7.25012 13.5284 7.63877C13.1228 8.03605 12.6496 8.33006 12.1488 8.58829C11.27 9.04053 10.3852 9.48749 9.50439 9.93642C9.47061 9.95364 9.43681 9.9649 9.37462 9.98807C9.37057 9.96887 9.36651 9.95166 9.36312 9.93246C9.26444 9.42458 9.2766 8.94519 9.30972 8.46514Z" fill="white"/>
    </g>
    <defs>
        <clipPath id="clip0_1_2312">
            <rect width="73" height="32" fill="white"/>
        </clipPath>
    </defs>
</svg>