<svg width="28" height="28" viewBox="0 0 28 28" fill="none" xmlns="http://www.w3.org/2000/svg">
<g clip-path="url(#clip0_224_2427)">
<path d="M14 0C6.4 0 0 6.06667 0 13.2222C0 17.5156 2.36667 21.4044 6.8 24.5156C8.63333 25.7911 10.4 26.6622 11.6 27.16C12.3333 27.4711 12.9 27.6889 13.2667 27.7822C13.4667 27.8444 13.6667 27.9067 13.7667 27.9378C13.8333 27.9378 13.8667 27.9689 13.9 27.9689L14 28L14.1333 27.9689C14.1667 27.9689 14.2 27.9378 14.2667 27.9378C14.4 27.9067 14.5667 27.8444 14.7667 27.7822C15.1 27.6578 15.6667 27.4711 16.4333 27.16C17.6 26.6622 19.4 25.7911 21.2333 24.5156C25.5667 21.4667 27.9 17.6711 28 13.4711V13.2222C28 6.06667 21.6 0 14 0ZM13.5 26.88C13.1667 26.7556 12.6667 26.5689 12.0333 26.32C11 25.8844 9.46667 25.1378 7.9 24.1111C8.33333 23.8933 8.9 23.6756 9.7 23.6756C11.3333 23.6756 11.6333 22.4311 11.8667 21.5289C12.4 21.7467 12.9667 21.9022 13.5333 21.9333V26.88H13.5ZM13.5 20.9689C12.9 20.9067 12.3333 20.72 11.7333 20.4089C9.83333 19.4133 8.33333 17.2044 8.33333 15.4V15.2133L8.2 15.0889C6.9 13.72 7.1 13.2844 7.1 13.2533C7.13333 13.1911 7.26667 13.1289 7.4 13.1289C7.66667 12.9422 7.86667 12.6933 8.03333 12.4133C8.6 11.3556 9.46667 10.92 10.3 10.5156C11 10.1733 11.7 9.83111 12.1 9.11556C12.5 9.58222 13 9.86222 13.5 10.0489V20.9689ZM13.5 9.05333C13 8.80445 12.6 8.4 12.3 7.62222L11.3333 7.80889C11.4 8.96 10.8 9.24 9.83333 9.70667C9.1 10.0489 8.23333 10.4844 7.56667 11.3867C7.3 9.61333 7.93333 7.80889 9.3 6.53333C9.76667 6.09778 10.3 5.72444 10.9 5.47556C11.7333 5.10222 12.6 4.88444 13.5 4.85333V9.05333ZM13.5 3.88889C13 3.88889 12.5333 3.95111 12.0333 4.07556C12.4 3.85778 12.8667 3.67111 13.5 3.60889V3.88889ZM13.5 2.67556C11.5 2.83111 10.5667 3.95111 10.2667 4.69778C9.66667 5.00889 9.1 5.38222 8.6 5.84889C6.76667 7.56 6.1 10.0489 6.76667 12.3511C6.5 12.4756 6.3 12.6622 6.2 12.88C5.9 13.5333 6.26667 14.4044 7.33333 15.5556C7.43333 17.5467 8.9 19.8178 10.9333 21.0311C10.9 21.1244 10.9 21.1867 10.8667 21.28C10.6 22.3378 10.4333 22.7111 9.66667 22.7111C8.4 22.7111 7.56667 23.1778 7 23.4889C3 20.5956 1 17.1422 1 13.2222C1 6.72 6.66667 1.21333 13.5 0.933333V2.67556ZM14.5 3.60889C15.2 3.70222 15.7 3.95111 16 4.26222C15.5 4.10667 15 3.98222 14.5 3.95111V3.60889ZM14.5 4.88444C15.2667 4.97778 16.0333 5.22667 16.7333 5.6C17.2 5.84889 17.6333 6.16 18 6.50222C19.4667 7.87111 20.1 9.89333 19.6667 11.76C17.8333 10.1733 16.2667 9.8 14.9667 9.48889C14.8 9.45778 14.6333 9.39556 14.4667 9.36444V4.88444H14.5ZM14.5 10.36C14.6 10.3911 14.6667 10.3911 14.7667 10.4222C16.1 10.7333 17.6 11.0756 19.4 12.8178C19.5 12.9111 19.6333 13.0044 19.8 13.0667C19.9333 13.0978 20.0667 13.1289 20.2 13.0978C20.4333 13.0978 20.5 13.1289 20.5 13.1289C20.6333 13.3467 20.0333 14.4667 19.1667 15.0267L19 15.1511V15.4C19 17.1422 17.9333 19.5067 15.9333 20.5333C15.4667 20.7511 15 20.9067 14.5 20.9689V10.36ZM15.9667 26.32C15.3333 26.6 14.8333 26.7867 14.5 26.88V21.9022C14.9667 21.8711 15.4 21.7467 15.8333 21.5911C16.1333 22.4933 16.9 23.6133 18.3333 23.6133C19.2 23.6133 19.7667 23.8622 20.1 24.08C18.5333 25.1378 17 25.8533 15.9667 26.32ZM27 13.44C26.9333 17.2667 24.8667 20.6578 20.9333 23.52C20.4667 23.1467 19.6 22.7111 18.3333 22.7111C17.3 22.7111 16.8667 21.6844 16.7333 21.1867C18.8 19.9733 19.9 17.5467 20 15.6489C20.8 15.0267 21.8333 13.6889 21.4667 12.7867C21.3667 12.5689 21.1667 12.2889 20.6333 12.1956C21.2333 9.95556 20.5333 7.49778 18.7333 5.84889C18.3333 5.47556 17.9333 5.16444 17.4667 4.91556C17.3 4.07556 16.5 2.86222 14.5 2.67556V0.933333C21.3333 1.21333 27 6.72 27 13.2222V13.44Z" fill="#676767"/>
<path d="M21.93 10.93C21.69 11.2 21.36 11.38 21 11.5C21.36 11.62 21.69 11.8 21.93 12.07C22.2 12.34 22.38 12.64 22.5 13C22.62 12.64 22.8 12.34 23.07 12.07C23.34 11.8 23.64 11.62 24 11.5C23.64 11.38 23.34 11.2 23.07 10.93C22.8 10.66 22.62 10.36 22.5 10C22.38 10.36 22.2 10.66 21.93 10.93Z" fill="#676767"/>
<path d="M23.5 15C23.38 15.36 23.2 15.66 22.93 15.93C22.69 16.2 22.36 16.38 22 16.5C22.36 16.62 22.69 16.8 22.93 17.07C23.2 17.34 23.38 17.64 23.5 18C23.62 17.64 23.8 17.34 24.07 17.07C24.34 16.8 24.64 16.62 25 16.5C24.64 16.38 24.34 16.2 24.07 15.93C23.8 15.66 23.62 15.36 23.5 15Z" fill="#676767"/>
<path d="M20.5 19C20.38 19.36 20.2 19.66 19.93 19.93C19.66 20.2 19.36 20.38 19 20.5C19.36 20.62 19.69 20.8 19.93 21.07C20.2 21.34 20.38 21.64 20.5 22C20.62 21.64 20.8 21.34 21.07 21.07C21.34 20.8 21.64 20.62 22 20.5C21.64 20.38 21.34 20.2 21.07 19.93C20.8 19.66 20.62 19.36 20.5 19Z" fill="#676767"/>
</g>
<defs>
<clipPath id="clip0_224_2427">
<rect width="28" height="28" fill="white"/>
</clipPath>
</defs>
</svg>
