<svg width="28" height="28" viewBox="0 0 28 28" fill="none" xmlns="http://www.w3.org/2000/svg">
<path d="M14 28L13.8762 27.9689C13.8452 27.9689 13.8143 27.9378 13.7524 27.9378C13.6286 27.9067 13.4738 27.8444 13.2881 27.7822C12.9786 27.6578 12.4214 27.4711 11.7405 27.16C10.6571 26.6622 8.98571 25.7911 7.28333 24.5156C3.19762 21.4044 1 17.5156 1 13.2222C1 6.06667 6.94286 0 14 0C21.0571 0 27 6.06667 27 13.2222V13.4711C26.9071 17.6711 24.7405 21.4667 20.6857 24.5156C18.9833 25.7911 17.3429 26.6622 16.2286 27.16C15.5476 27.4711 15.0214 27.6889 14.681 27.7822C14.4952 27.8444 14.3095 27.9067 14.2167 27.9378C14.1857 27.9378 14.1238 27.9689 14.0929 27.9689L14 28ZM14 0.933333C7.46905 0.933333 1.92857 6.56445 1.92857 13.2222C1.92857 17.2667 3.94048 20.8133 7.87143 23.7689C9.48095 24.9822 11.0905 25.8222 12.1429 26.32C12.7929 26.6311 13.2881 26.8178 13.5976 26.9111C13.7524 26.9733 13.8762 27.0044 13.969 27.0356C14.0619 27.0044 14.1857 26.9733 14.3405 26.9111C14.65 26.7867 15.1452 26.6 15.7952 26.32C16.8476 25.8222 18.4571 25.0133 20.0667 23.7689C23.9357 20.8756 25.9476 17.3911 26.0095 13.44V13.2222C26.0714 6.56445 20.531 0.933333 14 0.933333Z" fill="#676767"/>
<path d="M13.5 10C14.8824 10 16 8.88235 16 7.5C16 6.11765 14.8824 5 13.5 5C12.1176 5 11 6.11765 11 7.5C11 8.88235 12.1176 10 13.5 10ZM13.5 5.88235C14.3824 5.88235 15.1176 6.61765 15.1176 7.5C15.1176 8.38235 14.3824 9.11765 13.5 9.11765C12.6176 9.11765 11.8824 8.38235 11.8824 7.5C11.8824 6.61765 12.6176 5.88235 13.5 5.88235Z" fill="#676767"/>
<path d="M17.3363 16.0553C16.8607 16.0553 16.4485 16.0553 16.0998 15.9605C15.9413 15.8972 15.8778 15.834 15.8144 15.7708C15.751 15.7075 15.7193 15.581 15.7193 15.3597V14H15.2438H14.7682V15.3597C14.7682 15.7391 14.8633 16.087 15.0852 16.3399C15.2755 16.5929 15.5608 16.751 15.8144 16.8458C16.3217 17.004 16.9241 17.004 17.3363 17.004C17.7484 17.004 18.0338 17.3202 18.0972 17.7312C18.1606 18.1423 17.9704 18.5534 17.5582 18.6798L13.5317 19.913L9.50521 18.6798C9.09305 18.5534 8.90283 18.1739 8.96624 17.7312C9.02965 17.3202 9.31499 17.004 9.72715 17.004C10.1393 17.004 10.7417 17.0356 11.249 16.8458C11.5026 16.751 11.7879 16.5929 11.9782 16.3399C12.1684 16.087 12.2952 15.7391 12.2952 15.3597V14H11.8197H11.3441V15.3597C11.3441 15.581 11.2807 15.7075 11.249 15.7708C11.1856 15.834 11.1222 15.8972 10.9636 15.9605C10.6466 16.0553 10.2027 16.0553 9.72715 16.0553C8.7126 16.0553 8.11021 16.8458 8.0151 17.6047C7.91998 18.3636 8.26873 19.2806 9.21987 19.5652L11.9148 20.3874L9.56862 21.1146L9.69544 21.5573L9.82226 22L13.5 20.8617L17.1777 22L17.3046 21.5573L17.4314 21.1146L15.0852 20.3874L17.7801 19.5652C18.7313 19.2806 19.08 18.3636 18.9849 17.6047C18.9215 16.8458 18.3508 16.0553 17.3363 16.0553Z" fill="#676767"/>
<path d="M17.6393 11.7091C17.3186 11.4636 16.9339 11.3 16.5812 11.1909C16.1964 11.0818 15.8116 11 15.491 11H12.477C11.6754 11 10.9058 11.2455 10.3287 11.7091C9.11022 12.6364 7.60321 13.1818 6 13.1818V13.5909V14C7.89178 14 9.59118 13.3455 10.9699 12.3091C11.3868 11.9818 11.9319 11.8182 12.477 11.8182H15.491C15.6834 11.8182 15.9719 11.8727 16.2605 11.9545C16.5491 12.0364 16.8377 12.1727 17.0301 12.3091C18.4088 13.3455 20.1082 14 22 14V13.5909V13.1818C20.3327 13.1818 18.8577 12.6364 17.6393 11.7091Z" fill="#676767"/>
</svg>
