<svg width="28" height="28" viewBox="0 0 28 28" fill="none" xmlns="http://www.w3.org/2000/svg">
<path d="M14 0C6.94286 0 1 6.06667 1 13.2222C1 17.5156 3.19762 21.4356 7.31429 24.5156C9.01667 25.7911 10.6571 26.6622 11.7714 27.16C12.4524 27.4711 12.9786 27.6889 13.319 27.7822C13.5048 27.8444 13.6905 27.9067 13.7833 27.9378C13.8143 27.9378 13.8762 27.9689 13.9071 27.9689L14 28L14.0929 27.9689C14.1238 27.9689 14.1548 27.9689 14.2167 27.9378C14.3405 27.9067 14.4952 27.8444 14.681 27.7822C15.0214 27.6578 15.5476 27.4711 16.2286 27.16C17.3119 26.6622 18.9833 25.7911 20.6857 24.5156C24.7405 21.4667 26.9071 17.64 27 13.4711V13.2222C27 6.06667 21.0571 0 14 0ZM26.0714 13.44C26.0095 17.3911 23.9976 20.8444 20.1286 23.7689C18.4881 24.9822 16.9095 25.8222 15.8571 26.32C15.2071 26.6311 14.7119 26.8178 14.4024 26.9111C14.2476 26.9733 14.1238 27.0044 14.031 27.0356C13.9381 27.0044 13.8143 26.9733 13.6595 26.9111C13.35 26.8178 12.8548 26.6 12.2048 26.32C11.1524 25.8222 9.54286 25.0133 7.93333 23.7689C3.94048 20.8133 1.92857 17.2667 1.92857 13.2222C1.92857 6.56445 7.46905 0.933333 14 0.933333C20.531 0.933333 26.0714 6.56445 26.0714 13.2222V13.44Z" fill="#676767"/>
<path d="M15.7521 19.5843L14.81 21.8745L13.9591 21.498L14.9012 19.2078C15.0531 18.8314 15.1139 18.4549 15.0531 18.0471L14.9316 16.7294C14.9012 16.5412 14.81 16.3843 14.6581 16.2588C14.5061 16.1647 14.3238 16.1333 14.1414 16.1961C13.6552 16.3843 13.3209 16.8549 13.2906 17.4196L13.2602 17.9216C13.2298 18.6431 12.9867 19.3333 12.5612 19.9294L11.0418 22L10.3124 21.4353L11.8015 19.3961C12.1054 18.9569 12.2877 18.4549 12.3181 17.8902L12.3485 17.3882C12.3789 16.6039 12.8043 15.9137 13.4121 15.5373L12.5612 12.3373C11.6799 12.5569 10.7379 12.3686 10.0085 11.8353L7 9.67059L7.51662 8.88627L10.5251 11.051C11.1025 11.4588 11.8319 11.5843 12.5004 11.3647L12.7132 11.302L12.8347 11.2706C13.5641 11.0196 14.1111 10.4549 14.3238 9.70196L14.7492 8.19608C14.81 7.9451 14.8708 7.66275 14.9012 7.38039L14.9923 6L15.904 6.06275L15.8129 7.44314C15.7825 7.78824 15.7217 8.10196 15.6305 8.44706L15.2051 9.95294C14.9316 10.8941 14.263 11.6784 13.4121 12.0549L14.2934 15.2549C14.5669 15.2549 14.8708 15.349 15.1139 15.5059C15.509 15.7569 15.7521 16.1647 15.8129 16.6353L15.9648 17.9529C16.056 18.5176 15.9648 19.0824 15.7521 19.5843Z" fill="#676767"/>
<path d="M12.5 11C13.3284 11 14 10.3284 14 9.5C14 8.67157 13.3284 8 12.5 8C11.6716 8 11 8.67157 11 9.5C11 10.3284 11.6716 11 12.5 11Z" fill="#676767"/>
<path d="M20.4377 6.18083C20.1828 6.0651 19.9279 6.00723 19.6412 6.03617C19.1633 6.0651 18.7173 6.2387 18.3987 6.5859C18.0483 6.96203 17.9209 7.45389 18.0483 7.94575C18.2713 8.92948 19.3863 9.68174 20.4058 9.97107C20.4377 9.97107 20.5014 10 20.597 10C20.6607 10 20.7563 10 20.8518 9.94213C21.7439 9.59494 22.8589 8.81374 22.9863 7.77215C23.0501 7.25136 22.8908 6.75949 22.5085 6.44123C22.158 6.1519 21.712 5.9783 21.2341 6.00723C20.9156 5.9783 20.6607 6.03617 20.4377 6.18083ZM21.8076 7.01989C21.9669 7.16456 22.0625 7.39602 22.0306 7.65642C21.9669 8.26401 21.2341 8.81374 20.5651 9.10307C19.8642 8.87161 19.0996 8.35081 18.9722 7.77215C18.9085 7.51175 18.9722 7.28029 19.1315 7.13562C19.2589 6.99096 19.4501 6.90416 19.6731 6.90416H19.7049C19.8642 6.90416 20.0235 6.96203 20.151 7.04882C20.3421 7.19349 20.597 7.16456 20.7881 7.01989C20.9156 6.90416 21.0748 6.84629 21.266 6.84629C21.4571 6.81736 21.6802 6.90416 21.8076 7.01989Z" fill="#676767"/>
<path d="M7.05336 13.0781C6.68316 12.9698 6.24565 12.9698 5.9091 13.1051C5.70717 13.1863 5.5389 13.2945 5.43793 13.4027C5.236 13.4027 5.03408 13.4298 4.83215 13.5109C4.46194 13.6462 4.19271 13.9168 4.09174 14.2144C3.92347 14.5931 3.99078 14.9719 4.26002 15.2695C4.73118 15.8106 5.60621 16 6.38027 16C6.51489 16 6.61585 16 6.75047 15.9729C6.81778 15.9729 6.98605 15.9459 7.12067 15.8106C7.65915 15.3507 8.19762 14.5661 7.92839 13.8356C7.76011 13.5109 7.45722 13.2133 7.05336 13.0781ZM6.48123 15.2154C5.94275 15.2425 5.33697 15.1072 5.10139 14.8366C5.00042 14.7284 4.96677 14.5931 5.00042 14.512C5.03408 14.4308 5.10138 14.3496 5.236 14.2955C5.30331 14.2685 5.37062 14.2685 5.40428 14.2685C5.43793 14.2685 5.47159 14.2685 5.50524 14.2685C5.74083 14.3226 6.01006 14.2144 6.11103 14.025C6.14468 13.9438 6.21199 13.8897 6.31296 13.8627C6.41392 13.8085 6.54854 13.8085 6.64951 13.8627C6.78412 13.9168 6.88509 13.9979 6.91874 14.1332C7.08702 14.4308 6.81778 14.8907 6.48123 15.2154Z" fill="#676767"/>
<path d="M22.4974 17.7988C22.2929 17.6886 22.0885 17.6519 21.85 17.6886C21.7818 17.4682 21.6455 17.2845 21.4411 17.1376C21.2025 16.9906 20.9299 16.9539 20.6914 17.0641C20.4188 17.1743 20.1803 17.3947 20.0781 17.7253C19.8395 18.4233 20.1803 19.3417 20.6573 19.9295C20.6914 19.9662 20.6914 19.9662 20.7255 19.9662C21.4411 20.0764 22.327 19.9295 22.77 19.3417C22.9744 19.0478 23.0426 18.7172 22.9744 18.4233C22.8722 18.2029 22.7018 17.9457 22.4974 17.7988Z" fill="#676767"/>
</svg>
