<svg width="64" height="64" viewBox="0 0 64 64" fill="none" xmlns="http://www.w3.org/2000/svg">
<g clip-path="url(#clip0_224_2306)">
<mask id="mask0_224_2306" style="mask-type:luminance" maskUnits="userSpaceOnUse" x="0" y="0" width="64" height="64">
<path d="M64 0H0V64H64V0Z" fill="white"/>
</mask>
<g mask="url(#mask0_224_2306)">
<path d="M31.5 62C48.3447 62 62 48.3447 62 31.5C62 14.6553 48.3447 1 31.5 1C14.6553 1 1 14.6553 1 31.5C1 48.3447 14.6553 62 31.5 62Z" stroke="#989898" stroke-width="2.94118"/>
<path d="M21.034 30.4605C19.6937 28.9241 18.6258 26.8146 18.029 24.4825C17.3801 21.9467 17.3467 19.4088 17.9323 17.334C18.5802 15.0394 19.9138 13.5416 21.6885 13.1174C22.013 13.0399 22.3486 13 22.6854 13C24.3034 13 25.9825 13.9088 27.4149 15.5583C28.7507 17.0971 29.8098 19.2118 30.3987 21.5138C30.8921 23.4434 31.0288 25.3805 30.8065 27.1118M21.034 30.4605C18.4291 32.5052 17 35.1864 17 38.0505C17 41.032 18.5481 43.8165 21.3607 45.8892C24.0822 47.8952 27.6828 49 31.5 49C35.3172 49 38.9178 47.8952 41.6393 45.8892C44.4509 43.8155 46 41.032 46 38.0505C46 35.1864 44.5709 32.5052 41.966 30.4605M21.034 30.4605C24.0591 28.4497 27.1472 27.4599 30.8065 27.1118M30.8065 27.1118C31.2666 27.0946 31.7334 27.0946 32.1956 27.1118M41.966 30.4605C43.3052 28.9251 44.3742 26.8157 44.971 24.4825C45.6188 21.9478 45.6533 19.4088 45.0676 17.334C44.4198 15.0405 43.0862 13.5427 41.3137 13.1174C40.9893 13.0399 40.6537 13 40.3169 13C38.6989 13 37.0197 13.9088 35.5873 15.5583C34.2516 17.096 33.1925 19.2118 32.6035 21.5138C32.1101 23.4445 31.9734 25.3816 32.1956 27.1118M41.966 30.4605C38.9126 28.4345 35.7952 27.4551 32.1956 27.1118" stroke="#989898" stroke-width="2"/>
</g>
</g>
<defs>
<clipPath id="clip0_224_2306">
<rect width="64" height="64" fill="white"/>
</clipPath>
</defs>
</svg>
