<svg width="64" height="64" viewBox="0 0 64 64" fill="none" xmlns="http://www.w3.org/2000/svg">
<mask id="mask0_643_6799" style="mask-type:luminance" maskUnits="userSpaceOnUse" x="19" y="9" width="31" height="39">
<path d="M19 9H49.9375V48H19V9Z" fill="white"/>
</mask>
<g mask="url(#mask0_643_6799)">
<mask id="mask1_643_6799" style="mask-type:luminance" maskUnits="userSpaceOnUse" x="19" y="9" width="31" height="39">
<path d="M49.9375 9H19V48H49.9375V9Z" fill="white"/>
</mask>
<g mask="url(#mask1_643_6799)">
<mask id="mask2_643_6799" style="mask-type:luminance" maskUnits="userSpaceOnUse" x="19" y="9" width="31" height="39">
<path d="M19 9H49.9375V48H19V9Z" fill="white"/>
</mask>
<g mask="url(#mask2_643_6799)">
<path d="M21.4095 44.2369H29.6173L29.95 42.5242C29.7072 42.4761 29.4659 42.4198 29.2273 42.3552C28.9883 42.2905 28.7515 42.2177 28.5178 42.1366C28.2837 42.0554 28.053 41.9664 27.8253 41.8695C27.5976 41.7722 27.3737 41.6674 27.1531 41.5548C26.933 41.4425 26.717 41.3223 26.5048 41.1946C26.293 41.0672 26.0857 40.9324 25.8833 40.7904C25.6809 40.6484 25.4834 40.4997 25.2916 40.3442C25.0994 40.1883 24.9128 40.0264 24.7323 39.8578C24.5515 39.6892 24.377 39.5145 24.2082 39.3342C24.0398 39.1536 23.8778 38.9673 23.7223 38.7753C23.5671 38.5834 23.4183 38.3862 23.2767 38.1841C23.1351 37.9821 23.0007 37.7751 22.8734 37.5637C22.7462 37.3522 22.6265 37.1366 22.5143 36.9169C22.4026 36.6972 22.2983 36.4737 22.2017 36.2464C22.1054 36.0196 22.017 35.7897 21.9366 35.5565C21.8562 35.3232 21.784 35.0877 21.7202 34.8496C21.6564 34.6115 21.6009 34.3715 21.5541 34.1292C21.5069 33.8873 21.4684 33.6439 21.4385 33.3994C21.4083 33.1545 21.3872 32.9093 21.3743 32.6632C21.3615 32.4172 21.3574 32.1708 21.3615 31.9244C21.366 31.678 21.3793 31.432 21.4008 31.1864C21.4223 30.9407 21.4525 30.6962 21.4914 30.4528C21.5303 30.2095 21.5775 29.968 21.633 29.7276C21.6889 29.4876 21.7527 29.2494 21.8252 29.0139C21.8977 28.7781 21.9781 28.5452 22.0669 28.3149C22.1556 28.0851 22.2519 27.8582 22.3565 27.6347C22.4611 27.4113 22.5732 27.1919 22.6933 26.9759C22.8134 26.7604 22.9406 26.5493 23.0751 26.3423C23.2099 26.1354 23.3518 25.9337 23.5006 25.7365C23.6494 25.5397 23.805 25.3481 23.9673 25.1618C24.1293 24.9755 24.2981 24.7952 24.4729 24.6206C24.6478 24.4463 24.8286 24.278 25.0152 24.1158C25.2444 23.9167 25.4838 23.7259 25.7292 23.5464C25.7719 23.2834 25.838 23.0262 25.9274 22.7749C26.0166 22.5236 26.128 22.2825 26.2609 22.0511C26.3938 21.8197 26.5463 21.6023 26.7189 21.3983C26.8911 21.1944 27.0803 21.0073 27.2864 20.8372L26.336 19.4865C26.2688 19.3908 26.2174 19.2867 26.1823 19.1752C26.1472 19.0636 26.1295 18.9494 26.1295 18.8326C26.1295 18.7158 26.1472 18.6016 26.1823 18.4901C26.2174 18.3785 26.2688 18.2749 26.336 18.1787L25.2364 16.6166L25.0038 16.7789C24.9419 16.8217 24.8766 16.8585 24.8075 16.8885C24.7388 16.919 24.6674 16.9419 24.5938 16.9584C24.5201 16.9745 24.4457 16.9836 24.3706 16.9851C24.2951 16.9866 24.2203 16.9809 24.1459 16.9678C24.0719 16.955 23.9998 16.9347 23.9296 16.9077C23.8593 16.8806 23.7921 16.8468 23.7287 16.8063C23.6652 16.7661 23.6063 16.7199 23.5516 16.6681C23.4972 16.6162 23.4485 16.5599 23.4051 16.4983L22.5468 15.2783C22.5034 15.2167 22.4667 15.1518 22.4365 15.0834C22.4059 15.0147 22.3825 14.9437 22.3663 14.8704C22.3501 14.7972 22.341 14.7232 22.3395 14.6481C22.3376 14.5733 22.3436 14.499 22.3565 14.425C22.3697 14.351 22.3897 14.2793 22.4173 14.2094C22.4445 14.1395 22.4784 14.0731 22.5189 14.0096C22.5593 13.9465 22.6057 13.8879 22.6578 13.8334C22.7099 13.7793 22.7669 13.7309 22.8285 13.6877L29.2609 9.20606C29.3224 9.16325 29.3878 9.12681 29.4569 9.09677C29.526 9.06634 29.5973 9.04343 29.6706 9.02728C29.7442 9.01075 29.8186 9.00211 29.8941 9.00024C29.9693 8.99873 30.044 9.00437 30.1184 9.01751C30.1924 9.03066 30.2649 9.05057 30.3348 9.07761C30.405 9.10503 30.4722 9.13846 30.5357 9.17902C30.5991 9.21921 30.6584 9.26503 30.7128 9.31687C30.7671 9.3687 30.8158 9.42541 30.8593 9.48664L31.7179 10.7066C31.761 10.7682 31.7976 10.8332 31.8278 10.9019C31.8584 10.9702 31.8814 11.0412 31.8977 11.1145C31.9139 11.1877 31.923 11.2617 31.9245 11.3368C31.9264 11.4116 31.9203 11.4859 31.9075 11.5599C31.8943 11.6335 31.8743 11.7057 31.8467 11.7755C31.8195 11.8454 31.7855 11.9119 31.7451 11.975C31.7047 12.0384 31.6587 12.097 31.6065 12.1511C31.5544 12.2056 31.4974 12.254 31.4359 12.2972L31.2033 12.4595L32.3021 14.0212C32.4157 13.9908 32.5313 13.9784 32.6487 13.9833C32.7662 13.9885 32.8802 14.0111 32.9908 14.0513C33.1011 14.0911 33.203 14.147 33.2963 14.218C33.3896 14.2894 33.47 14.3732 33.5372 14.4689L39.9379 23.5644C39.976 23.6189 40.0093 23.6759 40.0376 23.736C40.0659 23.7961 40.0886 23.8585 40.1059 23.9223C40.1233 23.9866 40.135 24.0515 40.1407 24.1177C40.1467 24.1838 40.1471 24.2499 40.1414 24.316C40.1358 24.3821 40.1244 24.447 40.1074 24.5113C40.0901 24.5755 40.0678 24.6375 40.0399 24.6976C40.0119 24.758 39.9787 24.8155 39.9409 24.87C39.9028 24.9244 39.8605 24.9751 39.8133 25.0221L41.3709 27.2355C41.4139 27.2967 41.4506 27.3621 41.4808 27.4304C41.5114 27.4992 41.5344 27.5701 41.5506 27.6434C41.5669 27.7166 41.5759 27.7906 41.5774 27.8654C41.5793 27.9405 41.5733 28.0148 41.5604 28.0888C41.5472 28.1625 41.5272 28.2342 41.4997 28.3041C41.4725 28.3739 41.4385 28.4408 41.3981 28.5039C41.3577 28.567 41.3116 28.6259 41.2595 28.68C41.2074 28.7341 41.1508 28.7829 41.0888 28.8261L37.3113 31.4579C37.1146 31.5958 36.896 31.6645 36.6554 31.6649C36.5878 31.6645 36.5206 31.6589 36.4538 31.6469C36.3039 31.621 36.1646 31.5676 36.0362 31.4861C35.9078 31.4046 35.7998 31.3017 35.7129 31.1774L34.1557 28.9644C34.0047 29.0342 33.8457 29.0691 33.6792 29.0695C33.6112 29.0691 33.544 29.0635 33.4772 29.0519C33.3273 29.026 33.1879 28.9722 33.0595 28.8907C32.9312 28.8092 32.8235 28.7063 32.7363 28.582L32.347 28.0287C32.0891 28.1805 31.8184 28.3052 31.5352 28.4021C31.2516 28.499 30.9612 28.5666 30.6641 28.6049C30.3669 28.6428 30.0686 28.6507 29.7699 28.6286C29.4708 28.606 29.1774 28.5538 28.8893 28.472C28.8807 28.4791 28.872 28.4862 28.8637 28.4937C28.7477 28.5933 28.6371 28.6981 28.5314 28.8081C28.4256 28.9185 28.3252 29.0335 28.2308 29.1533C28.136 29.2731 28.0473 29.397 27.9646 29.5251C27.8819 29.6536 27.8056 29.7854 27.7358 29.921C27.6659 30.0562 27.6025 30.1948 27.5458 30.3364C27.4892 30.478 27.4397 30.6219 27.3971 30.7684C27.354 30.9145 27.3185 31.0624 27.2902 31.2123C27.2615 31.3618 27.2404 31.5128 27.2264 31.6645C27.2128 31.8163 27.206 31.968 27.2068 32.1205C27.2075 32.273 27.2154 32.4247 27.2309 32.5765C27.2464 32.7278 27.2691 32.8785 27.2989 33.0279C27.3287 33.1774 27.3657 33.325 27.4099 33.4708C27.4541 33.6169 27.5054 33.7604 27.5632 33.9012C27.6214 34.0421 27.6859 34.1803 27.7573 34.3151C27.8283 34.45 27.9061 34.581 27.9899 34.7084C28.0737 34.8357 28.1636 34.9589 28.2595 35.078C28.6677 35.5952 29.1608 36.0124 29.7401 36.3298C29.7756 36.3494 29.8092 36.3723 29.8405 36.3986C29.8719 36.4245 29.9002 36.4538 29.9258 36.4853C29.9515 36.5169 29.9738 36.551 29.9923 36.5871C30.0112 36.6232 30.0267 36.6607 30.038 36.6998C30.0493 36.7388 30.0569 36.7783 30.0603 36.8188C30.064 36.8594 30.0633 36.9 30.0591 36.9402C30.0546 36.9807 30.0463 37.0205 30.0338 37.0592C30.0214 37.0979 30.0055 37.1351 29.9859 37.1708C29.9663 37.2065 29.9432 37.2399 29.9172 37.2711C29.8907 37.3022 29.8617 37.3304 29.8299 37.356C29.7978 37.3811 29.7639 37.4033 29.7276 37.4221C29.6914 37.4408 29.6536 37.4559 29.6143 37.4671C29.5751 37.4788 29.535 37.4863 29.4946 37.4897C29.4538 37.493 29.4131 37.4927 29.3723 37.4882C29.3319 37.4837 29.2922 37.4754 29.253 37.4634C29.2141 37.451 29.1767 37.4352 29.1408 37.4157C28.4147 37.0179 27.7954 36.4947 27.283 35.8457C27.1697 35.7045 27.0625 35.5587 26.9624 35.4077C26.862 35.2567 26.7687 35.1016 26.6826 34.9424C26.5962 34.7831 26.5176 34.6205 26.4463 34.4541C26.3745 34.2877 26.3111 34.1187 26.2548 33.9463C26.1989 33.7743 26.151 33.6 26.1106 33.4234C26.0706 33.2473 26.0385 33.0693 26.0147 32.8901C25.9905 32.7106 25.9746 32.5307 25.9671 32.35C25.9595 32.1693 25.9603 31.9887 25.969 31.808C25.9777 31.627 25.995 31.4471 26.02 31.2683C26.0453 31.0891 26.0785 30.9115 26.12 30.7353C26.1612 30.5591 26.2106 30.3852 26.2677 30.2132C26.3251 30.0416 26.3896 29.8729 26.4621 29.7069C26.5346 29.5413 26.6147 29.3786 26.7019 29.2201C26.7891 29.0616 26.8835 28.9069 26.9851 28.757C27.0863 28.6068 27.1943 28.4614 27.3087 28.321C27.4235 28.1805 27.5439 28.0453 27.6708 27.9157C27.4269 27.7564 27.2011 27.5746 26.993 27.3707C26.7854 27.1667 26.5992 26.9444 26.4357 26.704C26.2718 26.4633 26.1332 26.2094 26.0196 25.9416C25.9063 25.6741 25.8202 25.3977 25.7617 25.1134C25.5997 25.2576 25.4434 25.4074 25.2919 25.5626C25.1405 25.7177 24.9944 25.8781 24.8543 26.0433C24.7138 26.2086 24.5798 26.3784 24.451 26.553C24.3226 26.7273 24.2003 26.9061 24.0844 27.089C23.9681 27.2719 23.8586 27.4586 23.7555 27.6486C23.6524 27.8391 23.5561 28.0329 23.4662 28.2301C23.3768 28.4269 23.2941 28.6271 23.2182 28.8295C23.1423 29.0323 23.0735 29.2374 23.012 29.4447C22.9504 29.6525 22.8965 29.8617 22.8493 30.0727C22.8021 30.2838 22.7628 30.4964 22.7303 30.7105C22.6982 30.9242 22.6733 31.1391 22.6559 31.3547C22.6386 31.5702 22.6287 31.7862 22.6265 32.0026C22.6242 32.2189 22.6291 32.4349 22.6419 32.6508C22.6544 32.8668 22.6748 33.082 22.7024 33.2965C22.7299 33.5113 22.7647 33.7247 22.8073 33.9365C22.8496 34.1487 22.8995 34.3591 22.9565 34.5679C23.0135 34.7767 23.0777 34.9833 23.1491 35.1876C23.2204 35.392 23.2986 35.5933 23.3839 35.7923C23.4693 35.9914 23.5618 36.1871 23.6607 36.3798C23.7596 36.5721 23.865 36.761 23.9771 36.9466C24.0893 37.1317 24.2075 37.3131 24.3321 37.4904C24.4571 37.6673 24.5877 37.8401 24.724 38.0084C24.8607 38.1766 25.0031 38.34 25.1511 38.4985C25.2991 38.6566 25.4524 38.8099 25.611 38.9579C25.7696 39.1059 25.9335 39.2478 26.1019 39.3846C26.2703 39.5213 26.4432 39.652 26.6211 39.7767C26.7986 39.9014 26.9802 40.0201 27.166 40.1324C27.3518 40.2443 27.5413 40.3502 27.7346 40.4494C27.9276 40.5485 28.1239 40.6413 28.3237 40.7269C28.5231 40.8126 28.7255 40.8914 28.9305 40.9632C29.1355 41.0349 29.3428 41.0995 29.5524 41.1574C29.762 41.2148 29.973 41.2652 30.1864 41.308L30.6369 38.9879C30.6391 38.9759 30.6422 38.9639 30.6452 38.9519C30.6682 38.8621 30.695 38.7735 30.7252 38.6859C30.7558 38.5984 30.7898 38.512 30.8272 38.4275C30.8649 38.3426 30.9057 38.2596 30.9503 38.1781C30.9948 38.0966 31.0424 38.0174 31.0938 37.94C31.1447 37.8623 31.1987 37.7871 31.2561 37.7139C31.3135 37.641 31.3736 37.5704 31.437 37.5024C31.5001 37.4345 31.5658 37.3691 31.6345 37.3064C31.7032 37.2436 31.7742 37.1839 31.8478 37.1272C31.9211 37.0705 31.997 37.0168 32.0751 36.9661C32.1529 36.9154 32.233 36.8681 32.3149 36.8241C32.3969 36.7802 32.4807 36.7396 32.5656 36.7024C32.651 36.6652 32.7378 36.6318 32.8258 36.6018C32.9138 36.5717 33.0033 36.5454 33.0935 36.5229C33.1838 36.5 33.2748 36.4812 33.3665 36.4658C33.4587 36.4508 33.5508 36.4391 33.6437 36.4316C33.7366 36.4241 33.8295 36.4203 33.9224 36.4203H35.0151C35.1873 36.4203 35.3588 36.4331 35.5291 36.4594C35.6993 36.4853 35.8666 36.524 36.0309 36.5755C36.1951 36.6269 36.3549 36.6908 36.5093 36.7663C36.6641 36.8421 36.8118 36.9293 36.953 37.0273C37.0942 37.1257 37.2271 37.2339 37.3517 37.3522C37.4763 37.4709 37.5911 37.5982 37.6961 37.7338C37.8011 37.8698 37.8951 38.0129 37.9782 38.1631C38.0612 38.3133 38.1326 38.4692 38.1915 38.63H46.5848C46.6769 38.6304 46.7679 38.6394 46.8586 38.6574C46.9488 38.6751 47.0364 38.7017 47.1217 38.737C47.2067 38.772 47.2875 38.8151 47.3642 38.8659C47.4408 38.9169 47.5118 38.9748 47.5767 39.0398C47.6421 39.1044 47.7002 39.175 47.7512 39.2512C47.8026 39.3275 47.846 39.4078 47.8811 39.4927C47.9166 39.5772 47.943 39.6647 47.9611 39.7545C47.9793 39.8443 47.9883 39.9352 47.9883 40.0268V40.8836C47.9883 40.9752 47.9793 41.0657 47.9611 41.1559C47.943 41.2456 47.9166 41.3331 47.8811 41.4177C47.846 41.5025 47.8026 41.5829 47.7512 41.6592C47.7002 41.7354 47.6421 41.806 47.5767 41.8706C47.5118 41.9356 47.4408 41.9935 47.3642 42.0445C47.2875 42.0952 47.2067 42.1384 47.1217 42.1734C47.0364 42.2087 46.9488 42.2353 46.8586 42.2534C46.7679 42.271 46.6769 42.28 46.5848 42.2804H40.891C40.8502 42.2804 40.8098 42.2763 40.7698 42.2684C40.7297 42.2605 40.6908 42.2489 40.6531 42.2331C40.6153 42.2177 40.5794 42.1985 40.5455 42.176C40.5115 42.1535 40.4801 42.1275 40.4511 42.099C40.422 42.0701 40.3963 42.0389 40.3737 42.0051C40.351 41.9713 40.3317 41.9356 40.3163 41.8981C40.3004 41.8605 40.2887 41.8218 40.2808 41.782C40.2728 41.7422 40.2687 41.7016 40.2687 41.661C40.2687 41.6205 40.2728 41.5803 40.2808 41.5401C40.2887 41.5003 40.3004 41.4616 40.3163 41.424C40.3317 41.3865 40.351 41.3508 40.3737 41.317C40.3963 41.2832 40.422 41.252 40.4511 41.2231C40.4801 41.1946 40.5115 41.1686 40.5455 41.1461C40.5794 41.1236 40.6153 41.1044 40.6531 41.089C40.6908 41.0736 40.7297 41.0616 40.7698 41.0537C40.8098 41.0458 40.8502 41.0417 40.891 41.0417H46.5848C46.6056 41.0417 46.6259 41.0379 46.6456 41.0297C46.6648 41.0218 46.6822 41.0101 46.6973 40.9955C46.712 40.9805 46.7237 40.9636 46.7317 40.944C46.7396 40.9245 46.7438 40.9046 46.7438 40.8836V40.0268C46.7438 40.0058 46.7396 39.9859 46.7317 39.9664C46.7234 39.9468 46.712 39.9299 46.6969 39.9149C46.6822 39.9002 46.6648 39.8886 46.6456 39.8807C46.6259 39.8725 46.6056 39.8687 46.5848 39.8687H38.4717L39.3202 44.2369H47.528C47.607 44.2373 47.6855 44.241 47.764 44.2489C47.8426 44.2564 47.9204 44.2681 47.9978 44.2835C48.0752 44.2989 48.1515 44.318 48.227 44.3409C48.3025 44.3638 48.3769 44.3901 48.4498 44.4202C48.5226 44.4502 48.5936 44.484 48.6631 44.5208C48.733 44.558 48.8005 44.5982 48.8659 44.6418C48.9316 44.6854 48.9946 44.7323 49.0558 44.7819C49.1166 44.8318 49.1751 44.8844 49.231 44.94C49.2869 44.9956 49.3398 45.0534 49.3896 45.1143C49.4398 45.1751 49.4866 45.2379 49.5304 45.3032C49.5742 45.3686 49.615 45.4358 49.652 45.5049C49.6894 45.574 49.723 45.645 49.7532 45.7175C49.7834 45.79 49.8102 45.864 49.8329 45.9387C49.8559 46.0138 49.8752 46.0901 49.8907 46.1671C49.9062 46.2441 49.9179 46.3215 49.9258 46.3996C49.9333 46.4777 49.9375 46.5562 49.9375 46.6347V47.381C49.9375 47.4216 49.9333 47.4618 49.9254 47.5016C49.9175 47.5414 49.9058 47.5805 49.8899 47.618C49.8744 47.6556 49.8552 47.6913 49.8325 47.7251C49.8099 47.7589 49.7842 47.79 49.7551 47.8186C49.7264 47.8475 49.6947 47.8731 49.6607 47.896C49.6267 47.9185 49.5912 47.9373 49.5535 47.9531C49.5157 47.9685 49.4765 47.9805 49.4364 47.9884C49.3964 47.9962 49.356 48 49.3152 48H19.6223C19.5815 48 19.5411 47.9962 19.5011 47.9884C19.4607 47.9805 19.4218 47.9685 19.384 47.9531C19.3463 47.9373 19.3104 47.9185 19.2764 47.896C19.2424 47.8731 19.2111 47.8475 19.1824 47.8186C19.1533 47.79 19.1276 47.7589 19.105 47.7251C19.0823 47.6913 19.0631 47.6556 19.0472 47.618C19.0317 47.5805 19.02 47.5418 19.0121 47.5016C19.0042 47.4618 19 47.4216 19 47.381V46.6347C19 46.5562 19.0042 46.4777 19.0117 46.3996C19.0196 46.3215 19.0313 46.2441 19.0468 46.1671C19.0623 46.0901 19.0816 46.0138 19.1042 45.9387C19.1273 45.864 19.1541 45.79 19.1843 45.7175C19.2145 45.645 19.2481 45.574 19.2855 45.5049C19.3225 45.4358 19.3633 45.3686 19.4071 45.3032C19.4509 45.2379 19.4977 45.1751 19.5479 45.1143C19.5977 45.0538 19.6506 44.9956 19.7065 44.94C19.7624 44.8844 19.8205 44.8318 19.8817 44.7819C19.9425 44.7323 20.0059 44.6854 20.0716 44.6418C20.137 44.5982 20.2045 44.558 20.2744 44.5208C20.3439 44.484 20.4149 44.4502 20.4877 44.4202C20.5606 44.3901 20.635 44.3638 20.7105 44.3409C20.7857 44.318 20.8623 44.2989 20.9397 44.2835C21.0171 44.2681 21.0949 44.2564 21.1735 44.2489C21.252 44.241 21.3305 44.2373 21.4095 44.2369ZM29.8265 12.6627C29.8031 12.6293 29.7831 12.594 29.7669 12.5568C29.7503 12.5196 29.7378 12.4809 29.7287 12.4415C29.7201 12.4016 29.7151 12.3615 29.7144 12.3209C29.7133 12.2803 29.7163 12.2398 29.7235 12.1999C29.7306 12.1598 29.7416 12.1207 29.7563 12.0828C29.771 12.0452 29.7895 12.0088 29.8114 11.9746C29.8333 11.9404 29.8586 11.9085 29.887 11.8792C29.9153 11.8499 29.9459 11.8236 29.9795 11.7999L30.6425 11.338L29.8953 10.2758L23.6218 14.647L24.3691 15.7092L25.0295 15.2487L25.0325 15.2468L25.0352 15.2449L27.9453 13.2174C27.9786 13.1942 28.0141 13.1742 28.0514 13.1577C28.0888 13.1416 28.1277 13.1288 28.1674 13.1202C28.2074 13.1111 28.2478 13.1063 28.2886 13.1055C28.3294 13.1048 28.3701 13.1078 28.4102 13.1149C28.4506 13.1217 28.4898 13.1326 28.5276 13.1476C28.5657 13.1622 28.602 13.1806 28.6367 13.2024C28.6711 13.2242 28.7032 13.249 28.7326 13.2772C28.7621 13.3053 28.7885 13.3361 28.8119 13.3696C28.8353 13.4026 28.8554 13.4379 28.872 13.4751C28.8882 13.5123 28.901 13.551 28.9097 13.5904C28.9188 13.6302 28.9233 13.6704 28.9245 13.711C28.9252 13.7519 28.9222 13.7921 28.915 13.8323C28.9078 13.8721 28.8969 13.9112 28.8822 13.9491C28.8674 13.987 28.8489 14.0231 28.827 14.0573C28.8051 14.0915 28.7798 14.1234 28.7519 14.1527C28.7236 14.1824 28.6926 14.2086 28.659 14.2319L26.256 15.9063L27.3147 17.4106L31.2422 14.674L29.8265 12.6627ZM36.677 30.3882L40.2959 27.8669L38.8047 25.7481L35.1862 28.2695L36.677 30.3882ZM30.0995 27.4022C30.1989 27.4022 30.2978 27.3977 30.3963 27.3883C30.4953 27.3793 30.5934 27.3654 30.6909 27.347C30.7883 27.3286 30.8846 27.3061 30.9797 27.2787C31.0753 27.2513 31.1689 27.2197 31.2614 27.1836C31.3536 27.1476 31.4442 27.1074 31.5325 27.0631C31.6209 27.0184 31.7074 26.9699 31.7912 26.9177C31.8754 26.8651 31.9566 26.8088 32.0355 26.7487C32.114 26.689 32.1896 26.6251 32.2624 26.5583C32.3353 26.491 32.4048 26.4208 32.4709 26.3472C32.537 26.274 32.5993 26.1973 32.6582 26.1181C32.7174 26.0385 32.7722 25.9566 32.8235 25.8721C32.8749 25.7879 32.9221 25.7012 32.9651 25.6122C33.0082 25.5235 33.0471 25.4326 33.0818 25.3402C33.1162 25.2478 33.1464 25.1539 33.1721 25.0585C33.1981 24.9631 33.2193 24.867 33.2359 24.7697C33.2525 24.6724 33.2646 24.5748 33.2721 24.4763C33.2797 24.3779 33.2827 24.2795 33.2808 24.1808C33.2793 24.082 33.2729 23.9836 33.2619 23.8855C33.251 23.7875 33.2355 23.6902 33.2151 23.5937C33.1951 23.4972 33.1706 23.4014 33.1415 23.3071C33.1124 23.2128 33.0788 23.1201 33.041 23.0288C33.0033 22.9375 32.9614 22.8485 32.9149 22.761C32.8689 22.6739 32.8186 22.5886 32.7646 22.506C32.7103 22.4233 32.6525 22.3437 32.5906 22.2663C32.529 22.189 32.4637 22.115 32.3954 22.0436C32.3266 21.9722 32.2549 21.9046 32.1797 21.84C32.1046 21.7754 32.0268 21.7146 31.946 21.6575C31.8652 21.6 31.7821 21.5467 31.696 21.4971C31.6103 21.4479 31.5223 21.4025 31.4325 21.3611C31.3422 21.3195 31.2505 21.2826 31.1572 21.2496C31.0636 21.2169 30.9688 21.1887 30.8725 21.1647C30.7762 21.1407 30.6792 21.1211 30.5814 21.1061C30.541 21.1001 30.5017 21.09 30.4632 21.0761C30.4247 21.0622 30.388 21.0449 30.3533 21.0239C30.3182 21.0028 30.2857 20.9788 30.2555 20.9514C30.2257 20.9239 30.1985 20.8939 30.1743 20.8608C30.1501 20.8282 30.1294 20.7936 30.112 20.7568C30.0946 20.72 30.081 20.6821 30.0712 20.6426C30.0614 20.6032 30.0557 20.563 30.0539 20.5224C30.052 20.4819 30.0542 20.4417 30.0603 20.4015C30.0663 20.3613 30.0765 20.3219 30.0901 20.2839C30.1041 20.2456 30.1214 20.2092 30.1426 20.1743C30.1637 20.1397 30.1879 20.107 30.2155 20.0774C30.243 20.0473 30.2732 20.0203 30.3061 19.9958C30.3389 19.9718 30.3737 19.9512 30.4107 19.9339C30.4477 19.9166 30.4858 19.9031 30.5255 19.8933C30.5651 19.8835 30.6051 19.8775 30.6459 19.8757C30.6867 19.8738 30.7275 19.8757 30.7675 19.8817C30.9661 19.9117 31.1617 19.9549 31.3543 20.0116C31.5473 20.0683 31.7349 20.1374 31.9181 20.2193C32.1012 20.3016 32.2779 20.3955 32.4482 20.5014C32.6185 20.6073 32.7809 20.7245 32.9349 20.8522C33.0894 20.9803 33.234 21.1181 33.3696 21.2657C33.5051 21.4134 33.6297 21.5692 33.7438 21.7337C33.8578 21.8982 33.9601 22.0695 34.0507 22.2479C34.1414 22.4263 34.2192 22.61 34.2849 22.7989C34.3502 22.9879 34.4023 23.1805 34.4416 23.3762C34.4805 23.5723 34.5061 23.7702 34.5182 23.9697C34.5303 24.1691 34.5284 24.3685 34.5133 24.5676C34.4978 24.7671 34.4691 24.9642 34.4268 25.1596C34.3845 25.3552 34.329 25.5468 34.2607 25.7346C34.192 25.9224 34.1112 26.1046 34.0175 26.2815C33.9243 26.4584 33.8189 26.6281 33.7022 26.7908C33.5855 26.9534 33.4583 27.1074 33.3205 27.2528L33.7003 27.7929L38.8625 24.1961L32.5732 15.2584L27.411 18.8552L28.636 20.5957C28.6496 20.6148 28.6616 20.6351 28.673 20.6558C28.6756 20.6599 28.679 20.664 28.6817 20.6685C28.7024 20.7035 28.7202 20.7399 28.7338 20.7782C28.7474 20.8165 28.7572 20.856 28.7632 20.8962C28.7693 20.9363 28.7711 20.9765 28.7693 21.0171C28.7674 21.058 28.7613 21.0978 28.7515 21.1373C28.7413 21.1767 28.7277 21.215 28.7104 21.2515C28.6926 21.2883 28.6718 21.3232 28.6473 21.3559C28.6231 21.3882 28.5959 21.4182 28.5654 21.4457C28.5351 21.4731 28.5027 21.4971 28.4676 21.5178C28.3192 21.606 28.1787 21.7059 28.0465 21.8167C27.9148 21.9279 27.7924 22.0489 27.6799 22.1796C27.5677 22.3107 27.4669 22.4496 27.3774 22.5969C27.2879 22.7441 27.2109 22.8977 27.1467 23.0573C27.0821 23.217 27.0312 23.3807 26.9938 23.549C26.956 23.7169 26.9326 23.8867 26.9228 24.0583C26.9134 24.2303 26.9175 24.4016 26.936 24.5729C26.9545 24.7438 26.9866 24.9124 27.0327 25.0784C27.0787 25.2441 27.1377 25.4052 27.2102 25.5614C27.2826 25.7177 27.3672 25.8672 27.4643 26.0099C27.5609 26.1523 27.6689 26.286 27.7875 26.411C27.9064 26.5361 28.0345 26.6507 28.1723 26.7551C28.3097 26.8591 28.4551 26.9519 28.6076 27.0327C28.7606 27.113 28.9188 27.181 29.0827 27.2362C29.2465 27.2911 29.4138 27.3324 29.5841 27.3606C29.7548 27.3883 29.9266 27.4022 30.0995 27.4022ZM48.6929 46.6347C48.6929 46.5585 48.6854 46.483 48.6703 46.4086C48.6552 46.3339 48.6333 46.2614 48.6038 46.1911C48.5744 46.1209 48.5385 46.054 48.4962 45.9909C48.4535 45.9278 48.4052 45.8692 48.3512 45.8152C48.2972 45.7614 48.2383 45.7134 48.1749 45.6713C48.1114 45.6289 48.0442 45.5932 47.9736 45.5639C47.903 45.535 47.8301 45.5128 47.755 45.4978C47.6802 45.4831 47.6043 45.4756 47.528 45.4756H39.5607L39.8107 46.7617H48.6929V46.6347ZM38.5431 46.7617L37.0821 39.2422C37.0523 39.1295 37.0134 39.0198 36.9654 38.9136C36.9171 38.8073 36.8608 38.7055 36.7959 38.6086C36.7309 38.5113 36.6588 38.42 36.5788 38.3348C36.4987 38.2495 36.4123 38.1714 36.3197 38.1004C36.2269 38.029 36.1287 37.9659 36.0252 37.9111C35.9221 37.8559 35.8149 37.8097 35.7039 37.7721C35.5932 37.7346 35.48 37.7064 35.364 37.6872C35.2485 37.6681 35.1322 37.6587 35.0151 37.6587H33.9224C33.8053 37.6587 33.689 37.6681 33.5731 37.6872C33.4575 37.7064 33.3443 37.7346 33.2332 37.7721C33.1226 37.8097 33.0154 37.8559 32.9119 37.9111C32.8088 37.9659 32.7106 38.029 32.6178 38.1004C32.5249 38.1714 32.4388 38.2495 32.3587 38.3348C32.2787 38.42 32.2062 38.5113 32.1416 38.6086C32.0767 38.7055 32.02 38.8073 31.9721 38.9136C31.9241 39.0198 31.8852 39.1295 31.855 39.2422L30.3944 46.7617H38.5431ZM20.2446 46.7617H29.1268L29.3768 45.4756H21.4095C21.3332 45.4756 21.2573 45.4831 21.1821 45.4978C21.1074 45.5128 21.0345 45.535 20.9639 45.5639C20.8933 45.5932 20.8261 45.6289 20.7626 45.6713C20.6992 45.7134 20.6403 45.7614 20.5863 45.8152C20.5323 45.8692 20.484 45.9278 20.4413 45.9909C20.399 46.054 20.3628 46.1209 20.3337 46.1911C20.3042 46.2614 20.2823 46.3339 20.2672 46.4086C20.2521 46.483 20.2446 46.5585 20.2446 46.6347V46.7617Z" fill="#989898"/>
</g>
</g>
</g>
<path d="M34 0C17.7143 0 4 13.8667 4 30.2222C4 40.0356 9.07143 48.9244 18.5714 56.0356C22.5 58.9511 26.2857 60.9422 28.8571 62.08C30.4286 62.7911 31.6429 63.2889 32.4286 63.5022C32.8571 63.6444 33.2857 63.7867 33.5 63.8578C33.6429 63.8578 33.7143 63.9289 33.7857 63.9289L34 64L34.2857 63.9289C34.3571 63.9289 34.4286 63.8578 34.5714 63.8578C34.8571 63.7867 35.2143 63.6444 35.6429 63.5022C36.3571 63.2178 37.5714 62.7911 39.2143 62.08C41.7143 60.9422 45.5714 58.9511 49.5 56.0356C58.7857 49.0667 63.7857 40.3911 64 30.7911V30.2222C64 13.8667 50.2857 0 34 0ZM61.8571 30.72C61.7143 39.7511 57.0714 47.7156 48.1429 54.3289C44.4286 57.1022 40.7143 59.0222 38.2857 60.16C36.7857 60.8711 35.6429 61.2978 34.9286 61.5111C34.5714 61.6533 34.2857 61.7244 34.0714 61.7956C33.8571 61.7244 33.5714 61.6533 33.2143 61.5111C32.5 61.2267 31.3571 60.8 29.8571 60.16C27.4286 59.0222 23.7143 57.1733 20 54.3289C10.7857 47.5733 6.14286 39.4667 6.14286 30.2222C6.14286 15.0044 18.9286 2.13333 34 2.13333C49.0714 2.13333 61.8571 15.0044 61.8571 30.2222V30.72Z" fill="#989898"/>
</svg>
