<svg width="64" height="64" viewBox="0 0 64 64" fill="none" xmlns="http://www.w3.org/2000/svg">
<path d="M35.75 30.4998C35.75 30.6472 35.7433 30.7942 35.7296 30.9408C35.7163 31.0875 35.6959 31.2333 35.6689 31.3777C35.6418 31.5221 35.6085 31.665 35.5684 31.806C35.5284 31.947 35.4817 32.0858 35.429 32.2219C35.3759 32.358 35.3169 32.4911 35.252 32.6213C35.1866 32.751 35.1157 32.8774 35.0391 33C34.9622 33.1223 34.88 33.2408 34.7926 33.3544C34.7048 33.4684 34.612 33.5776 34.5144 33.6818C34.4167 33.7861 34.3145 33.8847 34.2078 33.9785C34.1006 34.0718 33.99 34.1596 33.8752 34.2413C33.7603 34.3235 33.6419 34.3989 33.5201 34.4686C33.3982 34.538 33.2735 34.601 33.1457 34.6572C33.0182 34.7139 32.8882 34.7634 32.7558 34.8061C32.6237 34.8489 32.4899 34.8845 32.3543 34.9134C32.2188 34.9422 32.0821 34.9636 31.9448 34.9782C31.8071 34.9925 31.6695 35 31.5314 35C31.393 35 31.2554 34.9925 31.1177 34.9782C30.9804 34.9636 30.8437 34.9422 30.7082 34.9134C30.5726 34.8845 30.4388 34.8489 30.3067 34.8061C30.1743 34.7634 30.0443 34.7139 29.9168 34.6572C29.7893 34.601 29.6643 34.538 29.5424 34.4686C29.4206 34.3989 29.3022 34.3235 29.1873 34.2413C29.0725 34.1596 28.9619 34.0718 28.8551 33.9785C28.748 33.8847 28.6458 33.7861 28.5481 33.6818C28.4505 33.5776 28.3577 33.4684 28.2703 33.3544C28.1825 33.2408 28.1003 33.1223 28.0234 33C27.9468 32.8774 27.8759 32.751 27.8105 32.6213C27.7456 32.4911 27.6866 32.358 27.6335 32.2219C27.5808 32.0858 27.5345 31.947 27.4941 31.806C27.454 31.665 27.4207 31.5221 27.3936 31.3777C27.3666 31.2333 27.3466 31.0875 27.3329 30.9408C27.3192 30.7942 27.3125 30.6472 27.3125 30.4998C27.3125 30.3524 27.3192 30.2054 27.3329 30.0588C27.3466 29.9122 27.3666 29.7667 27.3936 29.6219C27.4207 29.4775 27.454 29.3346 27.4941 29.1936C27.5345 29.0526 27.5808 28.9139 27.6335 28.7777C27.6866 28.6416 27.7456 28.5085 27.8105 28.3787C27.8759 28.2486 27.9468 28.1222 28.0234 27.9996C28.1003 27.8773 28.1825 27.7588 28.2703 27.6452C28.3577 27.5312 28.4505 27.4221 28.5481 27.3178C28.6458 27.2136 28.748 27.1149 28.8551 27.0212C28.9619 26.9278 29.0725 26.84 29.1873 26.7583C29.3022 26.6765 29.4206 26.6008 29.5424 26.531C29.6643 26.4616 29.7893 26.3986 29.9168 26.3424C30.0443 26.2861 30.1743 26.2363 30.3067 26.1935C30.4388 26.1508 30.5726 26.1151 30.7082 26.0863C30.8437 26.0574 30.9804 26.036 31.1177 26.0214C31.2554 26.0071 31.393 26 31.5314 26C31.6695 26 31.8071 26.0071 31.9448 26.0214C32.0821 26.036 32.2188 26.0574 32.3543 26.0863C32.4899 26.1151 32.6237 26.1508 32.7558 26.1935C32.8882 26.2363 33.0182 26.2861 33.1457 26.3424C33.2735 26.3986 33.3982 26.4616 33.5201 26.531C33.6419 26.6008 33.7603 26.6765 33.8752 26.7583C33.99 26.84 34.1006 26.9278 34.2078 27.0212C34.3145 27.1149 34.4167 27.2136 34.5144 27.3178C34.612 27.4221 34.7048 27.5312 34.7926 27.6452C34.88 27.7588 34.9622 27.8773 35.0391 27.9996C35.1157 28.1222 35.1866 28.2486 35.252 28.3787C35.3169 28.5085 35.3759 28.6416 35.429 28.7777C35.4817 28.9139 35.5284 29.0526 35.5684 29.1936C35.6085 29.3346 35.6418 29.4775 35.6689 29.6219C35.6959 29.7667 35.7163 29.9122 35.7296 30.0588C35.7433 30.2054 35.75 30.3524 35.75 30.4998Z" fill="#989898"/>
<path d="M40.4375 45.1923C40.4375 40.1152 36.4502 36 31.5314 36C26.6123 36 22.625 40.1156 22.625 45.1923C22.625 50.269 40.4375 50.2694 40.4375 45.1923Z" fill="#989898"/>
<path d="M47 29.5C47 29.6145 46.9946 29.7291 46.984 29.8429C46.9735 29.9571 46.9579 30.0702 46.9369 30.1829C46.9158 30.2953 46.8897 30.4062 46.8588 30.516C46.8275 30.6255 46.7912 30.7335 46.7501 30.8393C46.7091 30.9452 46.6632 31.0488 46.6123 31.1496C46.5617 31.2507 46.5067 31.349 46.447 31.4443C46.3872 31.5396 46.3234 31.6317 46.2552 31.7201C46.1869 31.8089 46.115 31.8937 46.0389 31.9746C45.9629 32.0558 45.8834 32.1326 45.8003 32.2055C45.7171 32.278 45.6309 32.3465 45.5416 32.4099C45.4523 32.4737 45.3603 32.5324 45.2656 32.5864C45.1705 32.6404 45.0738 32.6897 44.9743 32.7336C44.8752 32.7774 44.774 32.8159 44.6712 32.8492C44.5683 32.8826 44.4641 32.9101 44.3588 32.9326C44.2536 32.9551 44.1473 32.9717 44.0404 32.983C43.9335 32.9942 43.8262 33 43.7186 33C43.6113 33 43.504 32.9942 43.3971 32.983C43.2902 32.9717 43.1839 32.9551 43.0787 32.9326C42.9731 32.9101 42.8692 32.8826 42.7663 32.8492C42.6635 32.8159 42.5623 32.7774 42.4632 32.7336C42.3637 32.6897 42.2666 32.6404 42.1719 32.5864C42.0772 32.5324 41.9852 32.4737 41.8959 32.4099C41.8063 32.3465 41.7204 32.278 41.6372 32.2055C41.5541 32.1326 41.4746 32.0558 41.3986 31.9746C41.3225 31.8937 41.2506 31.8089 41.1823 31.7201C41.1141 31.6317 41.0503 31.5396 40.9905 31.4443C40.9308 31.349 40.8758 31.2507 40.8248 31.1496C40.7743 31.0488 40.7284 30.9452 40.6874 30.8393C40.6463 30.7335 40.61 30.6255 40.5787 30.516C40.5475 30.4062 40.5217 30.2953 40.5006 30.1829C40.4796 30.0702 40.464 29.9571 40.4535 29.8429C40.4429 29.7291 40.4375 29.6145 40.4375 29.5C40.4375 29.3855 40.4429 29.2709 40.4535 29.1567C40.464 29.0429 40.4796 28.9295 40.5006 28.8171C40.5217 28.7047 40.5475 28.5938 40.5787 28.484C40.61 28.3742 40.6463 28.2665 40.6874 28.1607C40.7284 28.0548 40.7743 27.9512 40.8248 27.85C40.8758 27.7489 40.9308 27.6507 40.9905 27.5554C41.0503 27.4604 41.1141 27.3683 41.1823 27.2795C41.2506 27.1911 41.3225 27.1063 41.3986 27.0251C41.4746 26.9442 41.5541 26.8674 41.6372 26.7945C41.7204 26.7217 41.8063 26.6535 41.8959 26.5897C41.9852 26.5263 42.0772 26.4672 42.1719 26.4132C42.2666 26.3592 42.3637 26.3103 42.4632 26.2664C42.5623 26.2226 42.6635 26.1841 42.7663 26.1508C42.8692 26.1174 42.9731 26.0895 43.0787 26.0674C43.1839 26.0449 43.2902 26.0283 43.3971 26.017C43.504 26.0058 43.6113 26 43.7186 26C43.8262 26 43.9335 26.0058 44.0404 26.017C44.1473 26.0283 44.2536 26.0449 44.3588 26.0674C44.4641 26.0895 44.5683 26.1174 44.6712 26.1508C44.774 26.1841 44.8752 26.2226 44.9743 26.2664C45.0738 26.3103 45.1705 26.3592 45.2656 26.4132C45.3603 26.4672 45.4523 26.5263 45.5416 26.5897C45.6309 26.6535 45.7171 26.7217 45.8003 26.7945C45.8834 26.8674 45.9629 26.9442 46.0389 27.0251C46.115 27.1063 46.1869 27.1911 46.2552 27.2795C46.3234 27.3683 46.3872 27.4604 46.447 27.5554C46.5067 27.6507 46.5617 27.7489 46.6123 27.85C46.6632 27.9512 46.7091 28.0548 46.7501 28.1607C46.7912 28.2665 46.8275 28.3742 46.8584 28.484C46.8897 28.5938 46.9158 28.7047 46.9369 28.8171C46.9579 28.9295 46.9735 29.0429 46.984 29.1567C46.9946 29.2709 47 29.3855 47 29.5Z" fill="#989898"/>
<path d="M51.6875 41.0711C51.6875 43.4649 46.3113 44.3913 42.1493 43.8505C42.1036 43.2901 42.0082 42.7378 41.8636 42.1938C41.719 41.6502 41.5269 41.1229 41.2881 40.6127C41.0488 40.1021 40.7663 39.6166 40.4402 39.1558C40.114 38.695 39.7495 38.2659 39.3467 37.8688C39.098 37.6227 38.8366 37.3906 38.5625 37.1724C39.8428 35.2606 42.0388 34 44.5325 34C48.4838 34 51.6875 37.1657 51.6875 41.0711Z" fill="#989898"/>
<path d="M22.625 29.5C22.625 29.6145 22.6196 29.7291 22.609 29.8429C22.5985 29.9571 22.5829 30.0702 22.5619 30.1829C22.5408 30.2953 22.515 30.4062 22.4838 30.516C22.4525 30.6255 22.4162 30.7335 22.3751 30.8393C22.3341 30.9452 22.2882 31.0488 22.2377 31.1496C22.1867 31.2507 22.1317 31.349 22.072 31.4443C22.0122 31.5396 21.9484 31.6317 21.8802 31.7201C21.8119 31.8089 21.74 31.8937 21.6639 31.9746C21.5879 32.0558 21.5084 32.1326 21.4253 32.2055C21.3424 32.278 21.2562 32.3465 21.1666 32.4099C21.0773 32.4737 20.9853 32.5324 20.8906 32.5864C20.7959 32.6404 20.6988 32.6897 20.5993 32.7336C20.5002 32.7774 20.399 32.8159 20.2962 32.8492C20.1933 32.8826 20.0894 32.9101 19.9838 32.9326C19.8786 32.9551 19.7723 32.9717 19.6654 32.983C19.5585 32.9942 19.4512 33 19.3439 33C19.2363 33 19.129 32.9942 19.0221 32.983C18.9152 32.9717 18.8092 32.9551 18.7037 32.9326C18.5984 32.9101 18.4942 32.8826 18.3913 32.8492C18.2885 32.8159 18.1873 32.7774 18.0882 32.7336C17.9887 32.6897 17.892 32.6404 17.7969 32.5864C17.7022 32.5324 17.6102 32.4737 17.5209 32.4099C17.4316 32.3465 17.3454 32.278 17.2622 32.2055C17.1791 32.1326 17.0996 32.0558 17.0236 31.9746C16.9475 31.8937 16.8756 31.8089 16.8073 31.7201C16.7394 31.6317 16.6753 31.5396 16.6155 31.4443C16.5558 31.349 16.5008 31.2507 16.4502 31.1496C16.3993 31.0488 16.3534 30.9452 16.3124 30.8393C16.2713 30.7335 16.235 30.6255 16.2041 30.516C16.1728 30.4062 16.1467 30.2953 16.1256 30.1829C16.1046 30.0702 16.089 29.9571 16.0785 29.8429C16.0679 29.7291 16.0625 29.6145 16.0625 29.5C16.0625 29.3855 16.0679 29.2709 16.0785 29.1567C16.089 29.0429 16.1046 28.9295 16.1256 28.8171C16.1467 28.7047 16.1728 28.5938 16.2041 28.484C16.235 28.3742 16.2713 28.2665 16.3124 28.1607C16.3534 28.0548 16.3993 27.9512 16.4502 27.85C16.5008 27.7489 16.5558 27.6507 16.6155 27.5554C16.6753 27.4604 16.7394 27.3683 16.8073 27.2795C16.8756 27.1911 16.9475 27.1063 17.0236 27.0251C17.0996 26.9442 17.1791 26.8674 17.2622 26.7945C17.3454 26.7217 17.4316 26.6535 17.5209 26.5897C17.6102 26.5263 17.7022 26.4672 17.7969 26.4132C17.892 26.3592 17.9887 26.3103 18.0882 26.2664C18.1873 26.2226 18.2885 26.1841 18.3913 26.1508C18.4942 26.1174 18.5984 26.0895 18.7037 26.0674C18.8092 26.0449 18.9152 26.0283 19.0221 26.017C19.129 26.0058 19.2363 26 19.3439 26C19.4512 26 19.5585 26.0058 19.6654 26.017C19.7723 26.0283 19.8786 26.0449 19.9838 26.0674C20.0894 26.0895 20.1933 26.1174 20.2962 26.1508C20.399 26.1841 20.5002 26.2226 20.5993 26.2664C20.6988 26.3103 20.7959 26.3592 20.8906 26.4132C20.9853 26.4672 21.0773 26.5263 21.1666 26.5897C21.2562 26.6535 21.3424 26.7217 21.4253 26.7945C21.5084 26.8674 21.5879 26.9442 21.6639 27.0251C21.74 27.1063 21.8119 27.1911 21.8802 27.2795C21.9484 27.3683 22.0122 27.4604 22.072 27.5554C22.1317 27.6507 22.1867 27.7489 22.2377 27.85C22.2882 27.9512 22.3341 28.0548 22.3751 28.1607C22.4162 28.2665 22.4525 28.3742 22.4838 28.484C22.515 28.5938 22.5408 28.7047 22.5619 28.8171C22.5829 28.9295 22.5985 29.0429 22.609 29.1567C22.6196 29.2709 22.625 29.3855 22.625 29.5Z" fill="#989898"/>
<path d="M25.4375 37.1724C25.1634 37.3906 24.902 37.6227 24.6533 37.8688C24.2504 38.2659 23.8859 38.6947 23.5598 39.1558C23.234 39.6166 22.9511 40.1021 22.7122 40.6127C22.473 41.1229 22.2812 41.6498 22.1363 42.1938C21.9917 42.7378 21.8963 43.2898 21.8506 43.8505C17.6885 44.3913 12.3125 43.4649 12.3125 41.0711C12.3125 37.1657 15.5159 34 19.4677 34C21.9614 34 24.1572 35.2606 25.4375 37.1724Z" fill="#989898"/>
<path d="M45.1854 14H18.8153C18.756 14 18.6967 14.0031 18.6374 14.0086C18.5784 14.0141 18.5195 14.0227 18.4612 14.0336C18.403 14.0446 18.3454 14.0587 18.2883 14.0752C18.2314 14.0916 18.1757 14.1109 18.1207 14.1328C18.0656 14.1548 18.012 14.1792 17.9595 14.2059C17.9073 14.2327 17.8562 14.2622 17.8069 14.2938C17.7572 14.3254 17.7097 14.3594 17.6636 14.3958C17.6175 14.4318 17.5735 14.4702 17.5317 14.5104C17.4896 14.5509 17.4495 14.5931 17.412 14.6374C17.3741 14.6813 17.3388 14.7273 17.3059 14.7747C17.2727 14.8221 17.2423 14.8708 17.2144 14.9213C17.1862 14.9717 17.1608 15.0232 17.1383 15.0757C17.1154 15.1286 17.0954 15.1821 17.0783 15.2371C17.0607 15.2916 17.0465 15.3469 17.035 15.4028C17.0232 15.4588 17.0147 15.5151 17.0089 15.5721C17.0029 15.6287 17 15.6857 17 15.7427V19.9731C17 20.0301 17.0029 20.0871 17.0089 20.1437C17.0147 20.2007 17.0232 20.257 17.035 20.3129C17.0465 20.3689 17.0611 20.4242 17.0783 20.4787C17.0954 20.5333 17.1154 20.5872 17.1383 20.6397C17.1612 20.6926 17.1865 20.7441 17.2144 20.7942C17.2423 20.8446 17.273 20.8934 17.3059 20.9411C17.3391 20.9884 17.3745 21.0341 17.412 21.0784C17.4499 21.1223 17.4896 21.1645 17.5317 21.205C17.5739 21.2452 17.6179 21.2836 17.664 21.3197C17.7097 21.3561 17.7576 21.39 17.8069 21.4216C17.8562 21.4532 17.9073 21.4827 17.9598 21.5095C18.012 21.5363 18.066 21.5606 18.1207 21.5826C18.1757 21.6042 18.2314 21.6235 18.2886 21.6403C18.3454 21.6567 18.403 21.6705 18.4612 21.6818C18.5198 21.6928 18.5784 21.701 18.6374 21.7069C18.6967 21.7124 18.756 21.7151 18.8153 21.7151H22.6865L22.4753 24.6612C22.4532 24.9673 22.8531 25.1211 23.0571 24.8846L25.7962 21.7151H30.4614L31.6957 24.5956C31.8072 24.8575 32.1928 24.8575 32.3046 24.5956L33.5386 21.7151H38.2042L40.9429 24.8846C41.1473 25.1215 41.5472 24.9673 41.525 24.6612L41.3142 21.7151H45.1854C45.2447 21.7151 45.304 21.7124 45.3633 21.7065C45.4223 21.701 45.4813 21.6928 45.5395 21.6815C45.5978 21.6705 45.6553 21.6564 45.7121 21.6399C45.7689 21.6235 45.825 21.6042 45.8797 21.5823C45.9347 21.5606 45.9883 21.5363 46.0409 21.5092C46.0934 21.4824 46.1441 21.4529 46.1935 21.4213C46.2431 21.3897 46.2907 21.3557 46.3368 21.3193C46.3825 21.2833 46.4265 21.2449 46.4686 21.2047C46.5104 21.1642 46.5505 21.122 46.5883 21.078C46.6259 21.0338 46.6612 20.9881 46.6941 20.9407C46.7273 20.8934 46.7577 20.8443 46.7859 20.7942C46.8138 20.7437 46.8392 20.6922 46.8621 20.6397C46.8846 20.5869 46.9046 20.5333 46.9221 20.4787C46.9393 20.4242 46.9535 20.3689 46.9653 20.3129C46.9768 20.257 46.9853 20.2007 46.9914 20.1437C46.9971 20.0871 47 20.0301 47 19.9731V15.7427C47 15.6857 46.9971 15.6287 46.9914 15.5721C46.9857 15.5151 46.9768 15.4588 46.9653 15.4028C46.9535 15.3469 46.9393 15.2916 46.9221 15.2371C46.9046 15.1825 46.8849 15.1289 46.8621 15.0761C46.8392 15.0232 46.8138 14.9717 46.7859 14.9216C46.7577 14.8712 46.7273 14.8224 46.6945 14.775C46.6612 14.7273 46.6259 14.6817 46.5883 14.6374C46.5505 14.5935 46.5108 14.5513 46.4686 14.5107C46.4268 14.4706 46.3829 14.4321 46.3368 14.3961C46.2907 14.3597 46.2431 14.3257 46.1938 14.2942C46.1441 14.2626 46.0934 14.2331 46.0409 14.2063C45.9883 14.1792 45.9347 14.1548 45.8801 14.1332C45.825 14.1112 45.7689 14.092 45.7121 14.0755C45.6553 14.0587 45.5978 14.045 45.5395 14.0336C45.4813 14.0227 45.4223 14.0144 45.3633 14.0086C45.304 14.0031 45.2447 14.0003 45.1854 14ZM23.4277 17.7211L22.6755 18.2456C22.6462 18.2662 22.6204 18.2906 22.599 18.319C22.5775 18.3472 22.5615 18.3781 22.55 18.411C22.5389 18.4443 22.5332 18.4786 22.5332 18.5133C22.5332 18.5483 22.5389 18.5827 22.55 18.6159L22.8373 19.4644C22.9413 19.7692 22.5768 20.0229 22.3063 19.8345L21.5544 19.31C21.5248 19.2894 21.4926 19.2736 21.458 19.263C21.4233 19.2523 21.3879 19.2468 21.3515 19.2468C21.315 19.2468 21.2796 19.2523 21.245 19.263C21.2103 19.2736 21.1782 19.2894 21.1488 19.31L20.3963 19.8345C20.1261 20.0229 19.7623 19.7692 19.8656 19.4644L20.1529 18.6159C20.164 18.5827 20.1697 18.5483 20.1697 18.5133C20.1697 18.4786 20.164 18.4443 20.1529 18.411C20.1415 18.3781 20.125 18.3472 20.1036 18.319C20.0822 18.2906 20.0568 18.2662 20.0275 18.2456L19.2753 17.7211C19.0047 17.5327 19.1438 17.1228 19.4779 17.1228H20.4077C20.4442 17.1228 20.4799 17.1173 20.5142 17.1067C20.5489 17.0957 20.581 17.0803 20.6107 17.0597C20.64 17.0391 20.6654 17.0147 20.6868 16.9862C20.7082 16.9581 20.7247 16.9272 20.7358 16.8942L21.0231 16.045C21.1271 15.7399 21.5762 15.7399 21.6795 16.045L21.9668 16.8935C21.9779 16.9268 21.9943 16.9577 22.0158 16.9859C22.0372 17.014 22.0626 17.0384 22.0923 17.059C22.1216 17.0796 22.1537 17.0954 22.1884 17.106C22.223 17.117 22.2584 17.1221 22.2949 17.1225H23.2247C23.5592 17.1225 23.6978 17.5327 23.4277 17.7211ZM28.7519 17.7211L27.9996 18.2456C27.9703 18.2662 27.945 18.2906 27.9235 18.319C27.9021 18.3472 27.8856 18.3781 27.8742 18.411C27.8631 18.4443 27.8574 18.4786 27.8574 18.5133C27.8574 18.5483 27.8631 18.5827 27.8746 18.6159L28.1619 19.4644C28.2655 19.7692 27.901 20.0229 27.6308 19.8345L26.8786 19.31C26.849 19.2894 26.8172 19.2736 26.7825 19.263C26.7478 19.2523 26.7121 19.2468 26.6756 19.2468C26.6392 19.2468 26.6038 19.2523 26.5692 19.263C26.5345 19.2736 26.5023 19.2894 26.473 19.31L25.7208 19.8345C25.4503 20.0229 25.0865 19.7692 25.1898 19.4644L25.4771 18.6159C25.4885 18.5827 25.4939 18.5483 25.4939 18.5133C25.4939 18.4786 25.4885 18.4443 25.4771 18.411C25.466 18.3781 25.4496 18.3472 25.4281 18.319C25.4067 18.2906 25.3813 18.2662 25.3517 18.2456L24.5998 17.7211C24.3293 17.5327 24.4683 17.1228 24.8024 17.1228H25.7322C25.7687 17.1228 25.8041 17.1173 25.8387 17.1067C25.8734 17.0957 25.9056 17.0803 25.9349 17.0597C25.9645 17.0391 25.9899 17.0147 26.0113 16.9862C26.0328 16.9581 26.0489 16.9272 26.0603 16.8942L26.3476 16.0454C26.4509 15.7406 26.9008 15.7406 27.0041 16.0454L27.291 16.8942C27.3024 16.9272 27.3189 16.9581 27.3403 16.9862C27.3618 17.0147 27.3871 17.0391 27.4164 17.0597C27.4461 17.0803 27.4783 17.0957 27.5129 17.1067C27.5476 17.1173 27.583 17.1228 27.6194 17.1228H28.5492C28.8834 17.1225 29.0224 17.5327 28.7526 17.7211H28.7519ZM34.0764 17.7211L33.3242 18.2456C33.2945 18.2662 33.2691 18.2906 33.2477 18.319C33.2263 18.3472 33.2098 18.3781 33.1987 18.411C33.1873 18.4443 33.1816 18.4786 33.1816 18.5133C33.1816 18.5483 33.1873 18.5827 33.1987 18.6159L33.486 19.4644C33.5893 19.7692 33.2255 20.0229 32.955 19.8345L32.2028 19.31C32.1735 19.2894 32.1413 19.2736 32.1067 19.263C32.072 19.2523 32.0363 19.2468 32.0002 19.2468C31.9637 19.2468 31.928 19.2523 31.8933 19.263C31.8587 19.2736 31.8269 19.2894 31.7972 19.31L31.045 19.8345C30.7745 20.0229 30.411 19.7692 30.514 19.4644L30.8013 18.6159C30.8127 18.5827 30.8184 18.5483 30.8184 18.5133C30.8184 18.4786 30.8127 18.4443 30.8013 18.411C30.7902 18.3781 30.7737 18.3472 30.7523 18.319C30.7309 18.2906 30.7055 18.2662 30.6762 18.2456L29.924 17.7211C29.6535 17.5327 29.7925 17.1228 30.1266 17.1228H31.0564C31.0929 17.1228 31.1282 17.1173 31.1629 17.1067C31.1976 17.0957 31.2297 17.0803 31.259 17.0597C31.2887 17.0391 31.3141 17.0147 31.3355 16.9862C31.3569 16.9581 31.3734 16.9272 31.3845 16.8942L31.6718 16.0454C31.7758 15.7406 32.225 15.7406 32.3282 16.0454L32.6155 16.8942C32.6266 16.9272 32.6431 16.9581 32.6645 16.9862C32.6859 17.0147 32.7113 17.0391 32.741 17.0597C32.7703 17.0803 32.8024 17.0957 32.8371 17.1067C32.8718 17.1173 32.9071 17.1228 32.9436 17.1228H33.8734C34.2075 17.1225 34.3465 17.5327 34.0764 17.7211ZM39.4006 17.7211L38.6483 18.2456C38.6187 18.2662 38.5933 18.2906 38.5719 18.319C38.5504 18.3472 38.534 18.3781 38.5229 18.411C38.5115 18.4443 38.5061 18.4786 38.5061 18.5133C38.5061 18.5483 38.5115 18.5827 38.5229 18.6159L38.8102 19.4644C38.9142 19.7692 38.5497 20.0229 38.2792 19.8345L37.527 19.31C37.4977 19.2894 37.4655 19.2736 37.4308 19.263C37.3962 19.2523 37.3608 19.2468 37.3244 19.2468C37.2879 19.2468 37.2522 19.2523 37.2175 19.263C37.1832 19.2736 37.151 19.2894 37.1214 19.31L36.3695 19.8345C36.099 20.0229 35.7352 19.7692 35.8381 19.4644L36.1258 18.6159C36.1369 18.5827 36.1426 18.5483 36.1426 18.5133C36.1426 18.4786 36.1369 18.4443 36.1258 18.411C36.1144 18.3781 36.0979 18.3472 36.0765 18.319C36.0554 18.2906 36.0297 18.2662 36.0004 18.2456L35.2478 17.7211C34.9773 17.5327 35.1163 17.1228 35.4504 17.1228H36.3802C36.4167 17.1228 36.4521 17.1173 36.4867 17.1067C36.5214 17.0957 36.5536 17.0803 36.5829 17.0597C36.6125 17.0391 36.6379 17.0147 36.6593 16.9862C36.6808 16.9581 36.6972 16.9272 36.7083 16.8942L36.9956 16.0454C37.0996 15.7406 37.5488 15.7406 37.652 16.0454L37.9394 16.8942C37.9504 16.9272 37.9669 16.9581 37.9883 16.9862C38.0098 17.0147 38.0351 17.0391 38.0644 17.0597C38.0941 17.0803 38.1263 17.0957 38.1609 17.1067C38.1956 17.1173 38.231 17.1228 38.2674 17.1228H39.1972C39.5321 17.1225 39.6707 17.5327 39.4006 17.7211ZM44.7247 17.7211L43.9725 18.2456C43.9432 18.2662 43.9175 18.2906 43.896 18.319C43.8746 18.3472 43.8585 18.3781 43.8471 18.411C43.836 18.4443 43.8303 18.4786 43.8303 18.5133C43.8303 18.5483 43.836 18.5827 43.8471 18.6159L44.1344 19.4644C44.2384 19.7692 43.8739 20.0229 43.6037 19.8345L42.8512 19.31C42.8218 19.2894 42.7897 19.2736 42.755 19.263C42.7204 19.2523 42.685 19.2468 42.6485 19.2468C42.6121 19.2468 42.5767 19.2523 42.542 19.263C42.5074 19.2736 42.4752 19.2894 42.4459 19.31L41.6937 19.8345C41.4232 20.0229 41.0594 19.7692 41.1627 19.4644L41.45 18.6159C41.4611 18.5827 41.4668 18.5483 41.4668 18.5133C41.4668 18.4786 41.4611 18.4443 41.45 18.411C41.4385 18.3781 41.4225 18.3472 41.401 18.319C41.3796 18.2906 41.3542 18.2662 41.3245 18.2456L40.5727 17.7211C40.3022 17.5327 40.4412 17.1228 40.7753 17.1228H41.7048C41.7412 17.1228 41.777 17.1173 41.8116 17.1067C41.8463 17.0957 41.8784 17.0803 41.9077 17.0597C41.9374 17.0391 41.9628 17.0147 41.9842 16.9862C42.0057 16.9581 42.0217 16.9272 42.0332 16.8942L42.3205 16.0454C42.4238 15.7406 42.8733 15.7406 42.9769 16.0454L43.2639 16.8942C43.2753 16.9272 43.2918 16.9581 43.3132 16.9862C43.3346 17.0147 43.36 17.0391 43.3893 17.0597C43.419 17.0803 43.4508 17.0957 43.4855 17.1067C43.5201 17.1173 43.5558 17.1228 43.5923 17.1228H44.5221C44.8563 17.1225 44.9953 17.5327 44.7247 17.7211Z" fill="#989898"/>
<path d="M32 0C15.7143 0 2 13.8667 2 30.2222C2 40.0356 7.07143 48.9244 16.5714 56.0356C20.5 58.9511 24.2857 60.9422 26.8571 62.08C28.4286 62.7911 29.6429 63.2889 30.4286 63.5022C30.8571 63.6444 31.2857 63.7867 31.5 63.8578C31.6429 63.8578 31.7143 63.9289 31.7857 63.9289L32 64L32.2857 63.9289C32.3571 63.9289 32.4286 63.8578 32.5714 63.8578C32.8571 63.7867 33.2143 63.6444 33.6429 63.5022C34.3571 63.2178 35.5714 62.7911 37.2143 62.08C39.7143 60.9422 43.5714 58.9511 47.5 56.0356C56.7857 49.0667 61.7857 40.3911 62 30.7911V30.2222C62 13.8667 48.2857 0 32 0ZM59.8571 30.72C59.7143 39.7511 55.0714 47.7156 46.1429 54.3289C42.4286 57.1022 38.7143 59.0222 36.2857 60.16C34.7857 60.8711 33.6429 61.2978 32.9286 61.5111C32.5714 61.6533 32.2857 61.7244 32.0714 61.7956C31.8571 61.7244 31.5714 61.6533 31.2143 61.5111C30.5 61.2267 29.3571 60.8 27.8571 60.16C25.4286 59.0222 21.7143 57.1733 18 54.3289C8.78572 47.5733 4.14286 39.4667 4.14286 30.2222C4.14286 15.0044 16.9286 2.13333 32 2.13333C47.0714 2.13333 59.8571 15.0044 59.8571 30.2222V30.72Z" fill="#989898"/>
</svg>
