<svg width="28" height="28" viewBox="0 0 28 28" fill="none" xmlns="http://www.w3.org/2000/svg">
<path d="M19.7642 5.88008H18.8172V5.84897L19.7642 4.97786V4.66675H18.1995V5.00897H19.0642V5.04008L18.1172 5.91119V6.2223H19.7642V5.88008Z" fill="#676767"/>
<path d="M18.1178 7.46661H17.0966V7.44439L18.0848 6.48883V6.22217H16.5366V6.53328H17.4919L16.4707 7.51106V7.77772H18.1178V7.46661Z" fill="#676767"/>
<path d="M10.0718 11.6666C10.1351 11.6666 10.2301 11.6666 10.2935 11.6666C10.3568 11.6666 10.4519 11.6666 10.5152 11.6666C11.3704 11.5842 11.9722 11.0352 13.1758 9.88227L12.479 9.33325C11.4654 10.2666 10.927 10.7882 10.4202 10.8431C10.3252 10.8431 10.2618 10.8431 10.1668 10.8431C9.66 10.7882 9.12154 10.2666 8.10797 9.33325L7.41113 9.88227C8.61475 11.0078 9.21656 11.5842 10.0718 11.6666Z" fill="#676767"/>
<path d="M16.6601 11.6666C16.7235 11.6666 16.8185 11.6666 16.8819 11.6666C16.9452 11.6666 17.0402 11.6666 17.1036 11.6666C17.9588 11.5833 18.5606 11.0277 19.7642 9.88881L19.0674 9.33325C18.0538 10.2777 17.5153 10.8055 17.0086 10.861C16.9135 10.861 16.8502 10.861 16.7552 10.861C16.2484 10.8055 15.7099 10.2777 14.6963 9.33325L13.9995 9.88881C15.2031 10.9999 15.8049 11.5833 16.6601 11.6666Z" fill="#676767"/>
<path d="M14 0C6.4 0 0 6.06667 0 13.2222C0 17.5156 2.36667 21.4044 6.8 24.5156C8.63333 25.7911 10.4 26.6622 11.6 27.16C12.3333 27.4711 12.9 27.6889 13.2667 27.7822C13.4667 27.8444 13.6667 27.9067 13.7667 27.9378C13.8333 27.9378 13.8667 27.9689 13.9 27.9689L14 28L14.1333 27.9689C14.1667 27.9689 14.2 27.9378 14.2667 27.9378C14.4 27.9067 14.5667 27.8444 14.7667 27.7822C15.1 27.6578 15.6667 27.4711 16.4333 27.16C17.6 26.6622 19.4 25.7911 21.2333 24.5156C25.5667 21.4667 27.9 17.6711 28 13.4711V13.2222C28 6.06667 21.6 0 14 0ZM27 13.44C26.9333 17.3911 24.7667 20.8756 20.6 23.7689C18.8667 24.9822 17.1333 25.8222 16 26.32C15.3 26.6311 14.7667 26.8178 14.4333 26.9111C14.2667 26.9733 14.1333 27.0044 14.0333 27.0356C13.9333 27.0044 13.8 26.9733 13.6333 26.9111C13.3 26.7867 12.7667 26.6 12.0667 26.32C10.9333 25.8222 9.2 25.0133 7.46667 23.7689C3.16667 20.8133 1 17.2667 1 13.2222C1 6.56445 6.96667 0.933333 14 0.933333C21.0333 0.933333 27 6.56445 27 13.2222V13.44Z" fill="#676767"/>
<path d="M18.1178 15.7948C17.0541 17.0512 15.407 17.7692 13.5884 17.7692C11.7698 17.7692 10.157 17.0512 9.05897 15.7948C8.71583 15.4059 8.30406 14.6282 7.51485 13.2222L6.58838 13.6111C7.41191 15.1068 7.82367 15.8546 8.23544 16.3333C9.50505 17.7991 11.4609 18.6666 13.5884 18.6666C15.7158 18.6666 17.6374 17.829 18.9413 16.3333C19.3188 15.8846 19.7648 15.1367 20.5884 13.6111L19.6619 13.2222C18.8727 14.6282 18.4266 15.4059 18.1178 15.7948Z" fill="#676767"/>
</svg>
