<svg width="26" height="28" viewBox="0 0 26 28" fill="none" xmlns="http://www.w3.org/2000/svg">
<g clip-path="url(#clip0_224_2408)">
<path d="M13 28L12.8762 27.9689C12.8452 27.9689 12.8143 27.9378 12.7524 27.9378C12.6286 27.9067 12.4738 27.8444 12.2881 27.7822C11.9786 27.6578 11.4214 27.4711 10.7405 27.16C9.65714 26.6622 7.98571 25.7911 6.28333 24.5156C2.19762 21.4044 0 17.5156 0 13.2222C0 6.06667 5.94286 0 13 0C20.0571 0 26 6.06667 26 13.2222V13.4711C25.9071 17.6711 23.7405 21.4667 19.6857 24.5156C17.9833 25.7911 16.3429 26.6622 15.2286 27.16C14.5476 27.4711 14.0214 27.6889 13.681 27.7822C13.4952 27.8444 13.3095 27.9067 13.2167 27.9378C13.1857 27.9378 13.1238 27.9689 13.0929 27.9689L13 28ZM13 0.933333C6.46905 0.933333 0.928571 6.56445 0.928571 13.2222C0.928571 17.2667 2.94048 20.8133 6.87143 23.7689C8.48095 24.9822 10.0905 25.8222 11.1429 26.32C11.7929 26.6311 12.2881 26.8178 12.5976 26.9111C12.7524 26.9733 12.8762 27.0044 12.969 27.0356C13.0619 27.0044 13.1857 26.9733 13.3405 26.9111C13.65 26.7867 14.1452 26.6 14.7952 26.32C15.8476 25.8222 17.4571 25.0133 19.0667 23.7689C22.9357 20.8756 24.9476 17.3911 25.0095 13.44V13.2222C25.0714 6.56445 19.531 0.933333 13 0.933333Z" fill="#676767"/>
<path d="M13.2458 20.9586C13.9167 20.7996 14.4708 20.2273 14.6167 19.496C14.8208 18.4467 14.0333 17.6518 13.9167 16.6343C13.5375 12.8823 15.375 9.32113 18 7C14.675 8.90778 12.0792 12.4054 11.7292 16.6025C11.6417 17.4928 11 18.1923 11 19.0826C11.0292 20.2591 12.0792 21.213 13.2458 20.9586Z" fill="#676767"/>
<path d="M11.5 6C11.62 6.36 11.8 6.66 12.07 6.93C12.34 7.2 12.64 7.38 13 7.5C12.64 7.62 12.34 7.8 12.07 8.07C11.8 8.34 11.62 8.64 11.5 9C11.38 8.64 11.2 8.34 10.93 8.07C10.69 7.8 10.36 7.62 10 7.5C10.36 7.38 10.69 7.2 10.93 6.93C11.2 6.66 11.38 6.36 11.5 6Z" fill="#676767"/>
<path d="M18.5 15C18.62 15.36 18.8 15.66 19.07 15.93C19.34 16.2 19.64 16.38 20 16.5C19.64 16.62 19.34 16.8 19.07 17.07C18.8 17.34 18.62 17.64 18.5 18C18.38 17.64 18.2 17.34 17.93 17.07C17.69 16.8 17.36 16.62 17 16.5C17.36 16.38 17.69 16.2 17.93 15.93C18.2 15.66 18.38 15.36 18.5 15Z" fill="#676767"/>
</g>
<defs>
<clipPath id="clip0_224_2408">
<rect width="26" height="28" fill="white"/>
</clipPath>
</defs>
</svg>
