<svg width="28" height="28" viewBox="0 0 28 28" fill="none" xmlns="http://www.w3.org/2000/svg">
<g clip-path="url(#clip0_224_2433)">
<path d="M14 0C6.4 0 0 6.06667 0 13.2222C0 17.5156 2.36667 21.4044 6.8 24.5156C8.63333 25.7911 10.4 26.6622 11.6 27.16C12.3333 27.4711 12.9 27.6889 13.2667 27.7822C13.4667 27.8444 13.6667 27.9067 13.7667 27.9378C13.8333 27.9378 13.8667 27.9689 13.9 27.9689L14 28L14.1333 27.9689C14.1667 27.9689 14.2 27.9378 14.2667 27.9378C14.4 27.9067 14.5667 27.8444 14.7667 27.7822C15.1 27.6578 15.6667 27.4711 16.4333 27.16C17.6 26.6622 19.4 25.7911 21.2333 24.5156C25.5667 21.4667 27.9 17.6711 28 13.4711V13.2222C28 6.06667 21.6 0 14 0ZM27 13.44C26.9333 17.3911 24.7667 20.8756 20.6 23.7689C18.8667 24.9822 17.1333 25.8222 16 26.32C15.3 26.6311 14.7667 26.8178 14.4333 26.9111C14.2667 26.9733 14.1333 27.0044 14.0333 27.0356C13.9333 27.0044 13.8 26.9733 13.6333 26.9111C13.3 26.7867 12.7667 26.6 12.0667 26.32C10.9333 25.8222 9.2 25.0133 7.46667 23.7689C3.16667 20.8133 1 17.2667 1 13.2222C1 6.56445 6.96667 0.933333 14 0.933333C21.0333 0.933333 27 6.56445 27 13.2222V13.44Z" fill="#676767"/>
<path d="M20.6667 8.03333L21.614 8.4L20 10L23.3684 8.33333L22.1754 7.83333L24 6.5L22.7719 6L20.6667 8.03333Z" fill="#676767"/>
<path d="M20.4167 8C20.5 7.75 20.75 7.58333 21 7.58333C20.75 7.5 20.5833 7.25 20.5833 7C20.5 7.25 20.25 7.41667 20 7.41667C20.25 7.5 20.4167 7.70833 20.4167 8Z" fill="#676767"/>
<path d="M19.2 8.21778C19.1667 8.15556 19.1667 8.09333 19.2333 8.03111C19.1667 8.06222 19.1 8.06222 19.0333 8C19.0667 8.06222 19.0667 8.12444 19 8.18667C19.0667 8.18667 19.1667 8.18667 19.2 8.21778Z" fill="#676767"/>
<path d="M23.6663 7.87106C23.7663 7.80884 23.8996 7.83995 23.9663 7.90218C23.8996 7.80884 23.9329 7.6844 23.9996 7.62218C23.8996 7.6844 23.7663 7.65329 23.6996 7.59106C23.7329 7.6844 23.7329 7.77773 23.6663 7.87106Z" fill="#676767"/>
<path d="M21.9004 10.2666C21.8004 10.08 21.8337 9.89331 21.9671 9.73776C21.7671 9.83109 21.5671 9.79998 21.4004 9.67554C21.5004 9.8622 21.4671 10.0489 21.3337 10.2044C21.5337 10.1111 21.7671 10.1422 21.9004 10.2666Z" fill="#676767"/>
<path d="M12.8663 8.77331L15.8329 5.41331H14.2329L15.6329 3.11108H13.9996L12.6663 6.31553H13.8996L12.8663 8.77331Z" fill="#676767"/>
<path d="M11.9997 7.59117C11.933 7.52895 11.8997 7.43562 11.933 7.34229C11.8664 7.40451 11.7664 7.43562 11.6997 7.40451C11.7664 7.46673 11.7997 7.56006 11.7664 7.6534C11.833 7.59117 11.933 7.56006 11.9997 7.59117Z" fill="#676767"/>
<path d="M16.2663 4.72887C16.3663 4.63554 16.4996 4.57332 16.6663 4.63554C16.5663 4.54221 16.4996 4.38665 16.5663 4.26221C16.4663 4.35554 16.3329 4.41776 16.1663 4.35554C16.2663 4.44887 16.3329 4.60443 16.2663 4.72887Z" fill="#676767"/>
<path d="M15.4669 8.36891C15.2669 8.21335 15.2002 7.93335 15.2669 7.71558C15.1002 7.90224 14.8336 7.99558 14.5669 7.90224C14.7669 8.0578 14.8336 8.3378 14.7669 8.55558C14.9336 8.36891 15.2336 8.30669 15.4669 8.36891Z" fill="#676767"/>
<path d="M11.8667 5.75546C11.8667 5.50657 12.0001 5.25768 12.2667 5.16435C12.0001 5.16435 11.7334 5.00879 11.6334 4.79102C11.6334 5.0399 11.5001 5.28879 11.2334 5.38213C11.5001 5.35102 11.7667 5.50657 11.8667 5.75546Z" fill="#676767"/>
<path d="M6.16637 8.18222L6.66637 10.2044L6.96637 6.78222L5.93304 7.46666L5.73304 5.41333L4.69971 6.09777L5.36637 8.71111L6.16637 8.18222Z" fill="#676767"/>
<path d="M7.80052 9.24008C7.80052 9.05341 7.96719 8.86674 8.16719 8.83563C7.96719 8.83563 7.80052 8.68007 7.73385 8.49341C7.73385 8.68007 7.56719 8.86674 7.36719 8.89785C7.56719 8.89785 7.73385 9.0223 7.80052 9.24008Z" fill="#676767"/>
<path d="M5.30029 9.83109C5.36696 9.83109 5.43363 9.89331 5.46696 9.95554C5.46696 9.89331 5.53363 9.83109 5.60029 9.79998C5.53363 9.79998 5.46696 9.73776 5.43363 9.67554C5.40029 9.76887 5.36696 9.79998 5.30029 9.83109Z" fill="#676767"/>
<path d="M4.03333 8.74223C4.2 8.61779 4.43333 8.61779 4.6 8.71112C4.46667 8.55557 4.46667 8.33779 4.56667 8.15112C4.4 8.27557 4.16667 8.27557 4 8.18223C4.13333 8.33779 4.13333 8.55557 4.03333 8.74223Z" fill="#676767"/>
<path d="M6.89959 6.16006C6.89959 6.06673 6.99959 5.97339 7.09959 5.94228C6.99959 5.94228 6.89959 5.84895 6.86626 5.75562C6.86626 5.84895 6.76626 5.94228 6.66626 5.97339C6.76626 5.97339 6.86626 6.03561 6.89959 6.16006Z" fill="#676767"/>
<path d="M22.9 15.3689C22.9667 14.5911 22.7334 13.9066 22.2334 13.4089C21.8 12.9733 21.2 12.7244 20.5667 12.6622C19.8334 10.7955 17.8 10.4844 16.6334 10.6089C16 10.2666 15.1 10.0178 14.1 9.89331C12.2334 9.64442 10.2 9.95553 9.66669 11.1378C9.56669 11.1378 9.50002 11.1689 9.40002 11.1689C7.96669 11.4178 5.60002 11.7911 5.26669 13.44C4.66669 13.5644 4.20002 14 3.96669 14.6533C3.66669 15.6178 3.93336 16.9244 4.86669 17.64C4.90002 18.4489 5.20002 19.1022 5.73336 19.6311C6.43336 20.2844 7.43336 20.5333 8.26669 20.5955C8.46669 21.6533 9.36669 22.3066 10.6667 22.3066C11 22.3066 11.3 22.2755 11.5667 22.2444C12.6 22.8044 13.8667 23.7378 14.7334 24.4533C14.9667 24.64 15.2334 24.7333 15.5334 24.7333C15.6 24.7333 15.7 24.7333 15.7667 24.7022L16.4334 24.5778C16.7334 24.5155 17 24.36 17.2 24.1111C17.3667 23.8622 17.4334 23.5511 17.3667 23.2711L17.2 22.5866C18.4 22.7422 19.6667 22.5244 20.6 21.9644C21.3 21.5289 21.7667 20.9689 21.9334 20.2844C22.8 20.1289 23.4 19.6 23.6334 18.76C24.1 18.2933 24.2667 17.6711 24.1334 17.0178C23.9667 16.3333 23.4 15.7111 22.9 15.3689ZM16.3667 23.6133C16.3667 23.6444 16.3334 23.6755 16.2667 23.6755L15.6 23.8C15.5334 23.8 15.5 23.8 15.4334 23.7689C14.7334 23.1778 13.7667 22.4622 12.8667 21.9022C13.4 21.6533 13.7334 21.3111 13.9 20.9689C14 20.9689 14.1 20.9378 14.2 20.9378C14.6334 21.56 15.3 22.0578 16.1 22.3378L16.4 23.4889C16.4 23.5511 16.3667 23.5822 16.3667 23.6133ZM20.0667 21.1866C19.1667 21.7155 17.8334 21.8711 16.7 21.5289C16.2334 21.3733 15.6334 21.0933 15.2 20.5644C15.2667 20.5333 15.3334 20.5022 15.4 20.44C16.3 20.9066 17.9334 21.2178 19.4667 19.8178C19.9 20.0666 20.4 20.2533 20.9 20.3466C20.7 20.7511 20.3334 21.0311 20.0667 21.1866ZM23.0667 17.8889C22.8334 17.7333 22.5334 17.5778 22.2 17.4533C22.1667 16.3644 21.4334 15.5555 20.9667 15.2444C20.7334 15.0889 20.4334 15.1511 20.2667 15.3378C20.1 15.5555 20.1667 15.8355 20.3667 15.9911C20.6334 16.1466 21.0334 16.5822 21.1667 17.1733C20.8667 17.1422 20.5667 17.1422 20.3 17.1733C20.0334 17.2044 19.8334 17.4222 19.8667 17.6711C19.9 17.92 20.1334 18.1066 20.4 18.0755C20.7667 18.0444 21.1667 18.0755 21.5334 18.2C21.5334 18.2 21.5334 18.2 21.5667 18.2C22 18.3244 22.3667 18.5422 22.6334 18.6978C22.4334 19.1333 22.0667 19.3822 21.5334 19.4133C20.9334 19.4444 20.2334 19.1955 19.7667 18.8222C19.3667 18.5111 19 18.0133 19.5 17.4533C19.6667 17.2355 19.6334 16.9555 19.4 16.8C19.1667 16.6444 18.8667 16.6755 18.7 16.8933C18.1 17.6089 18.1334 18.48 18.7667 19.1955C17.8 20.0666 16.9 19.9733 16.3334 19.7866C16.5334 19.6311 16.7 19.4444 16.8 19.3511C17 19.1644 17 18.8844 16.8 18.6978C16.6 18.5111 16.3 18.5111 16.1 18.6978C15.8667 18.9155 15.3334 19.3822 15.1667 19.5066C14.9 19.6933 14.6334 19.8178 14.4 19.9111C14.1667 20.0044 13.9334 20.0355 13.7 20.0044C13.3 19.9733 13.0334 19.8178 12.9 19.6311C12.7334 19.4444 12.4 19.3822 12.2 19.5689C12 19.7244 11.9334 20.0355 12.1334 20.2222C12.3334 20.4711 12.6334 20.6578 12.9334 20.7822C12.7334 20.9689 12.3667 21.1555 11.7667 21.2489C11.5 21.28 11.2 21.3111 10.8667 21.3111C9.60002 21.3111 9.40002 20.5333 9.40002 20.0666C9.40002 19.3511 9.83336 18.5422 10.4667 18.1378C10.4667 18.1378 10.4667 18.1378 10.5 18.1378C11.6 17.4222 13.1667 16.6133 14.5 16.0844C15.4667 15.7111 16.3 15.4622 16.9 15.4311C17.1667 15.4 17.3667 15.1822 17.3667 14.9333C17.3334 14.6844 17.1 14.4978 16.8334 14.4978C16.2334 14.56 15.5334 14.7155 14.6667 15.0266C14.6 14.56 14.6334 13.8755 15.4334 13.5022C15.6667 13.3778 15.7667 13.0978 15.6667 12.88C15.5667 12.6622 15.2334 12.5689 15 12.6622C13.6334 13.3155 13.5334 14.5289 13.7334 15.3689C12.7334 15.7733 11.6667 16.3333 10.7334 16.8622C10.8 16.7066 10.8667 16.5511 10.9667 16.3644C11.2667 15.8044 11.6334 15.12 11.5 14.1866C12.5334 14.0622 13.8667 13.5955 13.8667 11.5422C13.8667 11.2933 13.6334 11.0755 13.3667 11.0755C13.1 11.0755 12.8667 11.2933 12.8667 11.5422C12.8667 13.0666 12.0667 13.2222 10.8334 13.3155C10.8334 13.3155 10.8334 13.3155 10.8 13.3155H10.5667C9.56669 13.3778 8.16669 13.4711 8.16669 14.9333C8.16669 15.1822 8.40002 15.4 8.66669 15.4C8.93336 15.4 9.16669 15.1822 9.16669 14.9333C9.16669 14.4666 9.36669 14.3422 10.4334 14.2489C10.5334 14.9022 10.3 15.4 10 15.9289C9.73336 16.3955 9.46669 16.9244 9.56669 17.5466C8.93336 18.0444 8.50002 18.8222 8.36669 19.5689C7.76669 19.5378 7.03336 19.32 6.53336 18.8844C6.26669 18.6355 6.10002 18.3555 6.03336 18.0133C6.16669 18.0444 6.33336 18.0444 6.46669 18.0444C6.73336 18.0444 6.96669 17.8266 6.96669 17.5778C6.96669 17.3289 6.73336 17.1111 6.46669 17.1111C6.26669 17.1111 6.06669 17.08 5.86669 17.0178C5.80002 16.9244 5.66669 16.8311 5.53336 16.8311C4.96669 16.3644 4.80002 15.4933 5.00002 14.9022C5.10002 14.6533 5.23336 14.4666 5.40002 14.3733C5.60002 14.9644 6.10002 15.4311 6.73336 15.6489C6.90002 16.1778 7.33336 16.9555 8.50002 17.2666C8.76669 17.3289 9.03336 17.2044 9.13336 16.9555C9.20002 16.7066 9.06669 16.4578 8.80002 16.3644C7.96669 16.1155 7.73336 15.5244 7.66669 15.1822C7.63336 15.0578 7.66669 14.56 7.80002 14.1555C7.90002 13.9066 7.73336 13.6578 7.50002 13.5644C7.23336 13.4711 6.96669 13.6266 6.86669 13.8444C6.80002 14.0622 6.73336 14.28 6.70002 14.4978C6.46669 14.3111 6.33336 14.0622 6.33336 13.7822C6.33336 12.6622 7.96669 12.2889 9.66669 12.0089C9.73336 12.32 9.86669 12.6311 10.0667 12.9733C10.2 13.1911 10.5 13.2844 10.7334 13.16C10.9667 13.0355 11.0667 12.7555 10.9334 12.5378C10.7 12.1644 10.6 11.8222 10.6667 11.5733C10.8334 10.8889 12.3334 10.5466 14.1 10.7644C15.0334 10.8889 15.8667 11.1378 16.4 11.4489C16.8 11.6978 17.0334 11.9466 17.0667 12.2266C17.1334 12.6311 16.7667 13.0978 16.4334 13.4089C16.2334 13.5955 16.2667 13.9066 16.4667 14.0622C16.6667 14.2489 17 14.2178 17.1667 14.0311C17.8334 13.3466 18.1334 12.6933 18.0334 12.0711C18 11.8844 17.9334 11.6978 17.8667 11.5422C18.5 11.6666 19.2667 11.9778 19.6334 12.7555C18.5 13.1289 18.1667 14.1555 17.8334 15.1511C17.7667 15.3378 17.7 15.5244 17.6334 15.7422C17.4334 16.2711 17.1667 16.6133 16.8667 16.6755C16.6334 16.7378 16.4 16.5822 16.3 16.4889C16.1667 16.3644 15.9667 16.3333 15.8 16.3644C15.6334 16.3955 15.5 16.5511 15.4667 16.7066C15.3334 17.2044 15.1 17.5466 14.7667 17.7644C14.3667 17.9822 13.9 17.9822 13.6 17.92C13.3334 17.8578 13.0667 18.0133 13 18.2622C12.9334 18.5111 13.1 18.76 13.3667 18.8222C13.8667 18.9466 14.6334 18.9155 15.3 18.5422C15.7 18.3244 16.0334 17.9511 16.2334 17.5155C16.5 17.6089 16.8334 17.64 17.1 17.5778C17.4667 17.4844 18.1667 17.1733 18.6 16.0222C18.6667 15.8044 18.7334 15.6178 18.8 15.4311C19.2 14.2178 19.4334 13.6578 20.3334 13.5644C20.8 13.5333 21.2667 13.6889 21.5667 14C21.9334 14.3733 22.0667 14.8711 21.9334 15.4933C21.9 15.7111 22.0334 15.9289 22.2334 16.0222C22.5667 16.1466 23.1 16.6444 23.2 17.2355C23.2 17.4844 23.1667 17.7022 23.0667 17.8889Z" fill="#676767"/>
</g>
<defs>
<clipPath id="clip0_224_2433">
<rect width="28" height="28" fill="white"/>
</clipPath>
</defs>
</svg>
