<svg width="18" height="18" viewBox="0 0 18 18" fill="none" xmlns="http://www.w3.org/2000/svg">
<path d="M11.8127 4.5C11.8127 5.24592 11.5164 5.96129 10.989 6.48874C10.4615 7.01618 9.74615 7.3125 9.00023 7.3125C8.25431 7.3125 7.53893 7.01618 7.01149 6.48874C6.48404 5.96129 6.18773 5.24592 6.18773 4.5C6.18773 3.75408 6.48404 3.03871 7.01149 2.51126C7.53893 1.98382 8.25431 1.6875 9.00023 1.6875C9.74615 1.6875 10.4615 1.98382 10.989 2.51126C11.5164 3.03871 11.8127 3.75408 11.8127 4.5ZM3.37598 15.0885C3.40008 13.6128 4.00323 12.2056 5.05536 11.1705C6.10749 10.1354 7.52429 9.55535 9.00023 9.55535C10.4762 9.55535 11.893 10.1354 12.9451 11.1705C13.9972 12.2056 14.6004 13.6128 14.6245 15.0885C12.86 15.8976 10.9413 16.3151 9.00023 16.3125C6.99323 16.3125 5.08823 15.8745 3.37598 15.0885Z" stroke="white" stroke-width="1.5" stroke-linecap="round" stroke-linejoin="round"/>
</svg>
