<svg width="64" height="64" viewBox="0 0 64 64" fill="none" xmlns="http://www.w3.org/2000/svg">
<g clip-path="url(#clip0_224_2313)">
<mask id="mask0_224_2313" style="mask-type:luminance" maskUnits="userSpaceOnUse" x="0" y="0" width="64" height="64">
<path d="M64 0H0V64H64V0Z" fill="white"/>
</mask>
<g mask="url(#mask0_224_2313)">
<path d="M31.5 62C48.3447 62 62 48.3447 62 31.5C62 14.6553 48.3447 1 31.5 1C14.6553 1 1 14.6553 1 31.5C1 48.3447 14.6553 62 31.5 62Z" stroke="#989898" stroke-width="2.94118"/>
<path d="M35.1064 26.85C34.1344 26.0098 32.8578 25.5 31.4595 25.5C29.9433 25.5 28.5702 26.0993 27.5734 27.0693M35.1064 26.85C36.2511 27.8395 36.973 29.2872 36.973 30.9C36.973 32.5128 36.2511 33.9605 35.1064 34.95M35.1064 26.85L40.6486 20.1004M27.5734 27.0693C26.5682 28.0474 25.9459 29.4026 25.9459 30.9C25.9459 32.3974 26.5682 33.7526 27.5734 34.7307M27.5734 27.0693L23.4061 22.8M35.1064 34.95C34.1344 35.7901 32.8578 36.3 31.4595 36.3C29.9433 36.3 28.5702 35.7007 27.5734 34.7307M35.1064 34.95L40.1892 41.5896M40.6486 20.1004C41.4166 20.6653 42.3711 21 43.4054 21C45.9429 21 48 18.9853 48 16.5C48 14.0147 45.9429 12 43.4054 12C40.8679 12 38.8108 14.0147 38.8108 16.5C38.8108 17.9722 39.5327 19.2794 40.6486 20.1004ZM27.5734 34.7307L21.8108 40.2864M40.1892 41.5896C39.3488 42.2494 38.8108 43.2631 38.8108 44.4C38.8108 46.3882 40.4565 48 42.4865 48C44.5165 48 46.1622 46.3882 46.1622 44.4C46.1622 42.4118 44.5165 40.8 42.4865 40.8C41.6173 40.8 40.8185 41.0956 40.1892 41.5896ZM21.8108 40.2864C20.982 39.4907 19.8468 39 18.5946 39C16.0571 39 14 41.0147 14 43.5C14 45.9853 16.0571 48 18.5946 48C21.1321 48 23.1892 45.9853 23.1892 43.5C23.1892 42.2412 22.6615 41.103 21.8108 40.2864ZM23.4061 22.8C23.8426 22.3223 24.1081 21.6916 24.1081 21C24.1081 19.5088 22.8739 18.3 21.3514 18.3C19.8288 18.3 18.5946 19.5088 18.5946 21C18.5946 22.4912 19.8288 23.7 21.3514 23.7C22.1678 23.7 22.9014 23.3523 23.4061 22.8Z" stroke="#989898" stroke-width="2"/>
</g>
</g>
<defs>
<clipPath id="clip0_224_2313">
<rect width="64" height="64" fill="white"/>
</clipPath>
</defs>
</svg>
