<svg width="64" height="64" viewBox="0 0 64 64" fill="none" xmlns="http://www.w3.org/2000/svg">
<g clip-path="url(#clip0_224_2320)">
<path d="M32 0C14.3549 0 0 14.3549 0 32.0015C0 49.6451 14.3549 64 32 64C49.6451 64 64 49.6451 64 32.0015C64 14.3549 49.6451 0 32 0ZM32 2.49903C39.7339 2.49903 46.7602 5.51435 52.0268 10.4012L42.9593 19.4687L44.5298 21.0422L53.5987 11.9732C58.4859 17.2401 61.501 24.2672 61.501 32.0015C61.501 48.2682 48.2668 61.501 32 61.501C24.266 61.501 17.2392 58.4862 11.9725 53.5995L23.2332 42.3388L21.6626 40.7654L10.4005 52.0275C5.51399 46.7613 2.49904 39.7351 2.49904 32.0015C2.49904 15.7346 15.7332 2.49903 32 2.49903ZM23.78 54.9563H25.365C25.365 54.8042 25.3931 54.6757 25.3978 54.5275H38.6028C38.6075 54.6757 38.6355 54.8042 38.6355 54.9563H40.2205C40.2205 48.8133 36.7812 45.5606 33.2307 42.5765C36.7813 39.5923 40.2205 36.34 40.2205 30.1964C40.2205 24.0529 36.7817 20.8005 33.2313 17.8171C36.1392 15.3729 38.9855 12.7348 39.9109 8.45139L38.3616 8.11714C38.2715 8.53437 38.1471 8.92339 38.0171 9.3077H25.9737C25.8229 8.86121 25.6919 8.39879 25.5953 7.90745L24.0398 8.21223C24.9091 12.6373 27.8064 15.327 30.7691 17.8173C27.2187 20.801 23.78 24.0529 23.78 30.1964C23.78 36.34 27.2192 39.5923 30.7698 42.5765C27.2194 45.5606 23.78 48.8133 23.78 54.9563ZM25.4993 53.1941C25.6794 51.8642 26.0538 50.6955 26.5841 49.6508H37.4164C37.9468 50.6955 38.3212 51.8642 38.5012 53.1941H25.4993ZM25.365 30.1964C25.365 30.179 25.3689 30.1648 25.3689 30.1474H38.6317C38.6317 30.1648 38.6355 30.179 38.6355 30.1964C38.6355 31.5018 38.4394 32.6421 38.1272 33.6877H25.8734C25.5611 32.6421 25.365 31.5018 25.365 30.1964ZM37.5798 25.2709C38.0623 26.3161 38.3904 27.4853 38.5299 28.8112H25.4706C25.61 27.4853 25.9383 26.3159 26.4206 25.2709H37.5798ZM37.6221 35.024C37.023 36.3552 36.2088 37.5156 35.2368 38.5643H28.7638C27.7915 37.5156 26.9776 36.3552 26.3784 35.024H37.6221ZM33.8844 39.9006C33.2788 40.4566 32.6465 40.9999 32.0004 41.5404C31.3542 40.9999 30.7219 40.4566 30.1163 39.9006H33.8844ZM31.752 19.0608C31.8346 18.9915 31.9168 18.9215 32 18.8521C32.083 18.9215 32.1654 18.9915 32.248 19.0608H31.752ZM33.4708 15.5177C32.993 15.9427 32.5011 16.363 32.0004 16.7818C31.4998 16.3628 31.0081 15.9425 30.5303 15.5177H33.4708ZM26.5273 10.6411H37.4661C36.806 11.9758 35.9134 13.1262 34.8788 14.1843H29.1186C28.0835 13.1255 27.187 11.9771 26.5273 10.6411ZM30.2256 20.3942H33.7744C34.9561 21.4701 36.0159 22.6174 36.8524 23.9345H27.148C27.9843 22.6172 29.0439 21.4697 30.2256 20.3942ZM30.6481 44.7771H33.3526C34.5847 45.8651 35.716 47.0048 36.6166 48.3174H27.384C28.2845 47.0048 29.416 45.8651 30.6481 44.7771Z" fill="#989898"/>
</g>
<defs>
<clipPath id="clip0_224_2320">
<rect width="64" height="64" fill="white"/>
</clipPath>
</defs>
</svg>
