<svg width="64" height="64" viewBox="0 0 64 64" fill="none" xmlns="http://www.w3.org/2000/svg">
<g clip-path="url(#clip0_643_5942)">
<path d="M31.9526 3.56858e-05C14.3076 0.0261718 -0.0261026 14.4024 3.56918e-05 32.0488C0.0261697 49.6924 14.4024 64.0261 32.0474 64C49.6924 63.9739 64.0261 49.5976 64 31.954C63.9739 14.3076 49.5976 -0.0261004 31.9526 3.56858e-05ZM20.925 44.6837L19.3521 43.1125L10.4302 52.0594C5.53587 46.8005 2.51052 39.779 2.49906 32.0452C2.47497 15.7784 15.6895 2.52315 31.9563 2.49906C39.6902 2.48761 46.721 5.49252 51.9947 10.3716L43.8946 18.5066L45.4674 20.0778L53.5691 11.9413C58.4639 17.2009 61.4895 24.2235 61.501 31.9578C61.525 48.2246 48.3105 61.4769 32.0437 61.501C24.3097 61.5124 17.2786 58.5079 12.0048 53.6292L20.925 44.6837Z" fill="#989898"/>
<path d="M33.0027 44.8365C32.9517 45.7334 33.639 46.504 34.5379 46.558L41.8618 46.997C42.7606 47.051 43.5307 46.3676 43.5817 45.4708L43.9973 38.1635C44.0483 37.2667 43.361 36.496 42.4622 36.4421L35.1383 36.003C34.2394 35.9491 33.4693 36.6325 33.4183 37.5293L33.0027 44.8365Z" fill="#989898"/>
<path d="M18.5367 39.6873C18.721 40.5753 19.5887 41.148 20.4748 40.9664L27.6947 39.4861C28.5807 39.3044 29.1496 38.4372 28.9653 37.549L27.4633 30.3128C27.279 29.4247 26.4113 28.852 25.5251 29.0336L18.3053 30.5139C17.4193 30.6956 16.8504 31.5628 17.0347 32.451L18.5367 39.6873Z" fill="#989898"/>
<path d="M37.6172 28.8289C36.8202 29.2284 35.8485 28.9045 35.4467 28.1055L32.1734 21.5954C31.7715 20.7964 32.092 19.8249 32.889 19.4255L39.3827 16.1711C40.1798 15.7716 41.1516 16.0955 41.5533 16.8945L44.8267 23.4045C45.2284 24.2035 44.908 25.1751 44.111 25.5745L37.6172 28.8289Z" fill="#989898"/>
</g>
<defs>
<clipPath id="clip0_643_5942">
<rect width="64" height="64" fill="white"/>
</clipPath>
</defs>
</svg>
