<svg width="64" height="65" viewBox="0 0 64 65" fill="none" xmlns="http://www.w3.org/2000/svg">
<path d="M32 0C14.3549 0 0 14.3549 0 32.0015C0 49.6451 14.3549 64 32 64C49.6451 64 64 49.6451 64 32.0015C64 14.3549 49.6451 0 32 0ZM20.9062 44.6672L19.3357 43.0938L10.4005 52.0275C5.51398 46.7613 2.49904 39.7353 2.49904 32.0015C2.49904 15.7346 15.7332 2.49903 32 2.49903C39.7339 2.49903 46.7602 5.51435 52.0268 10.4012L40.252 22.176L41.8225 23.7495L53.5987 11.9732C58.4859 17.2401 61.501 24.2672 61.501 32.0015C61.501 48.2682 48.2668 61.501 32 61.501C24.266 61.501 17.2394 58.486 11.9727 53.5995L20.9062 44.6672ZM42.5312 37.4827C42.5312 28.6846 33.0912 16.6723 32.6893 16.1656L32.0002 15.2957L31.3109 16.1656C30.9091 16.6723 21.4686 28.6846 21.4686 37.4827C21.4686 44.5082 26.8235 48.7059 32.0002 48.7059C37.2335 48.7059 42.5312 44.8509 42.5312 37.4827ZM23.2273 37.4827C23.2273 30.615 29.8209 21.119 32.0002 18.1691C34.1792 21.119 40.7725 30.615 40.7725 37.4827C40.7725 43.6957 36.3592 46.9472 32.0002 46.9472C27.6878 46.9472 23.2273 43.4073 23.2273 37.4827ZM33.7477 45.4202L33.3528 43.7061C33.8414 43.5936 34.3175 43.4245 34.7675 43.2021C36.1432 42.5227 37.1854 41.4046 37.7801 39.968L39.4049 40.6412C38.6444 42.4774 37.3099 43.9088 35.5455 44.7797C34.9726 45.062 34.3682 45.2768 33.7477 45.4202Z" fill="#989898"/>
</svg>
