<svg width="64" height="64" viewBox="0 0 64 64" fill="none" xmlns="http://www.w3.org/2000/svg">
<g clip-path="url(#clip0_224_2329)">
<path d="M40.2146 16.8805L35.6025 20.2834C35.231 18.4004 34.2269 16.8826 33.286 15.5357C33.0263 15.1639 32.7738 14.8024 32.5476 14.4468L31.7849 13.2481L31.052 14.4657C30.8613 14.7826 30.654 15.1046 30.4417 15.4343C29.56 16.8047 28.6141 18.3356 28.2779 20.1945L23.7869 16.8805V37.6523C23.7869 39.1612 24.5121 40.5969 25.7264 41.4936L31.1211 45.4742V50.7536H32.8798V45.4744L38.275 41.4936C39.4893 40.5969 40.2146 39.1612 40.2146 37.6523V16.8805ZM25.5456 27.3257L29.8687 30.516C30.6359 31.0819 31.0936 31.9888 31.0936 32.942V36.1314L26.7706 32.9411C26.0037 32.3751 25.5456 31.4683 25.5456 30.5151V27.3257ZM38.4559 27.3257V30.5151C38.4559 31.4683 37.9975 32.3751 37.2307 32.9411L32.9073 36.1314V32.942C32.9073 31.9888 33.3654 31.0819 34.1324 30.516L38.4559 27.3257ZM34.1324 23.554L38.4559 20.3637V23.5531C38.4559 24.5063 37.9975 25.4133 37.2307 25.9792L32.9073 29.1695V25.9801C32.9073 25.0268 33.3654 24.1199 34.1324 23.554ZM31.8317 16.525C31.8361 16.5311 31.8398 16.5371 31.8442 16.5431C32.873 18.016 33.9235 19.5429 34.0069 21.4608L33.0881 22.1388C32.649 22.4629 32.3006 22.8745 32.0005 23.3178C31.7005 22.8745 31.3521 22.4627 30.9128 22.1388L29.9135 21.4013C29.9611 19.5397 30.8836 18.0001 31.8317 16.525ZM25.5456 20.3637L29.8687 23.554C30.6359 24.1199 31.0936 25.0268 31.0936 25.9801V29.1695L26.7706 25.9792C26.0037 25.4133 25.5456 24.5063 25.5456 23.5531V20.3637ZM31.0936 43.2686L26.7706 40.0783C26.0037 39.5124 25.5456 38.6055 25.5456 37.6523V34.4629L29.8687 37.6532C30.6359 38.219 31.0936 39.1259 31.0936 40.0792V43.2686ZM38.4559 37.6523C38.4559 38.6055 37.9975 39.5124 37.2307 40.0783L32.9073 43.2686V40.0792C32.9073 39.1259 33.3654 38.219 34.1324 37.6532L38.4559 34.4629V37.6523ZM32.0015 0C14.3564 0 0 14.3549 0 32.0015C0 49.6451 14.3564 64 32.0015 64C49.6451 64 64 49.6451 64 32.0015C64 14.3549 49.6451 0 32.0015 0ZM22.4204 43.1516L20.8498 41.5781L10.4012 52.0268C5.51507 46.7606 2.50047 39.7348 2.50047 32.0015C2.50047 15.7346 15.7346 2.49903 32.0015 2.49903C39.7349 2.49903 46.7613 5.51453 52.0277 10.4017L42.3504 20.079L43.921 21.6525L53.5995 11.9739C58.486 17.2409 61.501 24.2675 61.501 32.0015C61.501 48.2682 48.2668 61.501 32.0015 61.501C24.267 61.501 17.24 58.4857 11.9732 53.5988L22.4204 43.1516Z" fill="#989898"/>
</g>
<defs>
<clipPath id="clip0_224_2329">
<rect width="64" height="64" fill="white"/>
</clipPath>
</defs>
</svg>
